<?xml version="1.0" standalone="no"?>
<!DOCTYPE svg PUBLIC "-//W3C//DTD SVG 1.1//EN" "http://www.w3.org/Graphics/SVG/1.1/DTD/svg11.dtd">
<svg xmlns="http://www.w3.org/2000/svg">
<metadata>Copyright (C) 2013 by original authors @ fontello.com</metadata>
<defs>
<font id="fontello" horiz-adv-x="1000" >
<font-face font-family="fontello" font-weight="400" font-stretch="normal" units-per-em="1000" ascent="850" descent="-150" />
<missing-glyph horiz-adv-x="1000" />
<glyph glyph-name="glass" unicode="&#xe800;" d="m0 811l1000 0l-420-420l0-412l156 0l0-90l-470 0l0 90l154 0l0 412z" horiz-adv-x="1000" />
<glyph glyph-name="youtube" unicode="&#xe90e;" d="m0-29l0 758l1000 0l0-758l-1000 0z m355 157l350 220l-350 219l0-439z" horiz-adv-x="1000" />
<glyph glyph-name="search" unicode="&#xe802;" d="m0 8l186 186l2 0q-67 105-67 228q0 178 125 303t303 125t303-125t125-303t-125-302t-303-125q-106 0-197 48l-194-193z m311 415q0-98 70-168t168-69t168 69t70 168t-70 168t-168 70t-168-70t-70-168z" horiz-adv-x="977" />
<glyph glyph-name="search-circled" unicode="&#xe803;" d="m0 350q0 207 147 354t353 146t354-146t146-354t-146-354t-354-146t-353 146t-147 354z m223-193l90-90l109 109q53-27 113-27q100 0 171 71t71 171t-71 171t-172 71t-171-71t-70-171q0-70 37-129l-2 0z m177 234q0 57 39 96t95 39t95-39t39-96t-39-96t-95-39t-95 39t-39 96z" horiz-adv-x="1000" />
<glyph glyph-name="mail" unicode="&#xe804;" d="m0-29l324 342l176-100l176 100l324-342l-1000 0z m0 114l0 414l254-147z m0 503l0 141l1000 0l0-141l-500-285z m746-236l254 147l0-414z" horiz-adv-x="1000" />
<glyph glyph-name="mail-circled" unicode="&#xe805;" d="m0 350q0 207 147 354t353 146t354-146t146-354t-146-354t-354-146t-353 146t-147 354z m244-193l512 0l-166 174l-90-51l-90 51z m0 58l131 137l-131 74l0-211z m0 256l256-144l256 144l0 72l-512 0l0-72z m381-119l131-137l0 211z" horiz-adv-x="1000" />
<glyph glyph-name="heart" unicode="&#xe806;" d="m1 532q7 111 75 183q94 80 212 70t190-98q38 49 92 79q113 43 217 3t150-140q30-106 10-199t-78-174q-68-94-174-184q-53-49-124-103t-93-57q-13 2-28 12t-35 25t-24 20q-264 199-348 357q-49 96-42 206z" horiz-adv-x="955" />
<glyph glyph-name="heart-circled" unicode="&#xe807;" d="m0 350q0 207 147 354t353 146t354-146t146-354t-146-354t-354-146t-353 146t-147 354z m242 76q-4-60 22-111q47-86 189-195q2-2 13-11t18-14t16-5q27 2 119 86q57 49 94 100q70 96 37 203q-20 41-57 63t-82 23q-31 0-60-12q-29-15-51-43q-39 49-103 54t-114-40q-37-37-41-98z" horiz-adv-x="1000" />
<glyph glyph-name="heart-empty" unicode="&#xe808;" d="m1 521q7 115 79 191l2 0l2 2q88 76 199 76t191-70q32 27 67 45l2 2l2 0q56 23 117 23q88 2 161-44t110-124l0-2l2-3q30-106 10-202t-80-175q-62-88-162-172q0-2-2-2q-49-45-107-90q-34-25-59-41q-33-23-55-23l-6-2l-5 2q-28 3-59 29q-10 6-21 16t-16 13l-2 0q-246 188-328 340l0 2q-49 94-42 209z m85-10q-6-86 33-162q74-135 303-310l2 0q6-6 18-16t19-14q8-6 15-10q8 2 14 6q22 14 51 37q58 43 105 88q94 80 151 161q107 142 58 298q-27 57-78 88t-113 29q-43 0-86-17q-39-22-68-57l-32-43l-35 43q-52 65-141 72t-161-52q-49-55-55-141z" horiz-adv-x="953" />
<glyph glyph-name="star" unicode="&#xe809;" d="m0 471l379-2l125 360l117-364l379-8l-309-220l110-366l-307 225l-310-215l119 360z" horiz-adv-x="1000" />
<glyph glyph-name="star-circled" unicode="&#xe80a;" d="m0 350q0 207 147 354t353 146t354-146t146-354t-146-354t-354-146t-353 146t-147 354z m160 82l205-156l-80-246l211 148l209-152l-74 246l209 152l-258 4l-78 246l-86-242l-258 0z" horiz-adv-x="1000" />
<glyph glyph-name="star-empty" unicode="&#xe80b;" d="m0 471l94 0l285-2l96 270l29 90l29-92l88-272l285-6l94-2l-76-54l-233-166l82-274l28-91l-76 56l-231 168l-232-162l-78-53l29 90l90 270l-227 174z m189-64l168-129l20-14l-8-21l-66-203l176 123l17 11l18-13l172-125l-61 203l-6 21l18 14l174 125l-215 4l-22 2l-8 21l-64 201l-70-199l-8-21l-235 0z" horiz-adv-x="1000" />
<glyph glyph-name="user" unicode="&#xe80c;" d="m0-150l0 156q0 24 58 58t159 71q99 35 137 73t37 101q0 29-27 72t-32 59q-12 35-29 135q-10 52-14 93q-2 22 6 50t28 60t67 51t110 21t110-21t67-51t28-60t6-50q-4-41-14-93q-17-100-29-135q-6-16-32-59t-27-72q0-64 37-101t137-73q217-80 217-129l0-156l-1000 0z" horiz-adv-x="1000" />
<glyph glyph-name="group" unicode="&#xe80d;" d="m0 106l0 134q0 26 18 32l171 80q-66 39-68 131q0 56 35 103q37 41 90 43q31 0 63-19q-49-125 23-237q-12-11-25-19l-114-55q-48-23-52-84l0-143l-114 0q-25 0-27 34z m193-59l0 168q0 27 22 37l152 70l57 28q-37 23-60 66t-22 94q0 76 46 130t110 54t109-54t45-130q0-106-78-158l61-30l146-70q24-10 24-37l0-168q-2-37-37-41l-541 0q-14 2-24 14t-10 27z m473 330q68 106 22 231q31 19 66 21q49 0 90-43q35-41 35-103q0-82-65-131l168-80q18-10 18-32l0-134q0-32-27-34l-118 0l0 143q0 57-50 84l-110 53q-15 8-29 25z" horiz-adv-x="1000" />
<glyph glyph-name="group-circled" unicode="&#xe80e;" d="m0 350q0 207 147 354t353 146t354-146t146-354t-146-354t-354-146t-353 146t-147 354z m178-158q0-22 17-22l73 0l0 92q0 18 8 32t25 23l74 35q10 6 16 14q-12 17-20 41t-8 49q0 15 4 31t10 29q-20 14-41 14q-37-2-59-31t-21-63q2-61 43-86l-111-51q-10-6-10-19l0-88z m123-22q-2-41 23-43l350 0q12 4 16 12t5 13l0 110q0 18-13 24l-94 47l-41 19q37 22 49 74q8 30 0 61q-10 35-36 59t-62 27q-35-2-60-27t-36-57q-11-45 8-92q16-29 41-47l-37-18l-98-45q-15-7-15-25l0-92z m306 196q8-8 20-16t21-12t26-10t23-11q16-8 25-23t8-32l0-92l75 0q17 2 17 22l0 88q0 13-10 19l-109 53q41 29 41 84q0 37-23 65t-57 29q-21 0-43-14q12-29 12-60q0-49-26-90z" horiz-adv-x="1000" />
<glyph glyph-name="torso" unicode="&#xe80f;" d="m0-150l0 358l338 144q-61 37-92 101t-31 133q0 104 64 184t162 80q102-4 164-83t63-181q-2-74-33-136t-86-98l334-145l0-357l-883 0z" horiz-adv-x="883" />
<glyph glyph-name="video" unicode="&#xe810;" d="m0-29l0 758l1000 0l0-758l-1000 0z m123 123l754 0l0 512l-754 0l0-512z m266 82l0 340l293-170z" horiz-adv-x="1000" />
<glyph glyph-name="video-circled" unicode="&#xe811;" d="m0 350q0 207 147 354t353 146t354-146t146-354t-146-354t-354-146t-353 146t-147 354z m201-226l598 0l0 453l-598 0l0-453z m74 74l0 304l450 0l0-304l-450 0z m159 49l175 101l-175 102l0-203z" horiz-adv-x="1000" />
<glyph glyph-name="video-alt" unicode="&#xe812;" d="m0-150l0 1000l883 0l0-1000l-883 0z m45 119l109 0l0 82l-109 0l0-82z m0 184l109 0l0 84l-109 0l0-84z m0 185l109 0l0 82l-109 0l0-82z m0 186l109 0l0 82l-109 0l0-82z m0 183l109 0l0 83l-109 0l0-83z m156-826l481 0l0 436l-481 0l0-436z m0 467l481 0l0 436l-481 0l0-436z m528-379l109 0l0 82l-109 0l0-82z m0 184l109 0l0 84l-109 0l0-84z m0 185l109 0l0 82l-109 0l0-82z m0 186l109 0l0 82l-109 0l0-82z m0 183l109 0l0 83l-109 0l0-83z" horiz-adv-x="883" />
<glyph glyph-name="videocam" unicode="&#xe813;" d="m0-37l0 774l775 0l0-325l225 325l0-774l-225 324l0-324l-775 0z" horiz-adv-x="1000" />
<glyph glyph-name="video-chat" unicode="&#xe814;" d="m0 96l0 713l1000 0l0-713l-473 0l-320-205l0 205l-207 0z m219 201l402 0l0 125l160-125l0 332l-160-123l0 123l-402 0l0-332z" horiz-adv-x="1000" />
<glyph glyph-name="picture" unicode="&#xe815;" d="m0-68l0 836l1000 0l0-836l-1000 0z m76 78l848 0l0 680l-848 0l0-680z m90 80l0 59l150 195l102-86l193 291l223-228l0-231l-668 0z m0 416q0 37 24 62t62 24q33 0 58-24t24-62q0-33-24-57t-58-25q-37 0-62 25t-24 57z" horiz-adv-x="1000" />
<glyph glyph-name="camera" unicode="&#xe816;" d="m0-27l0 627l295 0l31 127l362 0l31-127l281 0l0-627l-1000 0z m221 346q0-117 83-199t199-82t198 82t82 199t-82 199t-198 82t-199-82t-83-199z m84 0q0 82 57 140t140 59t141-59t58-140t-58-140t-141-57t-140 57t-57 140z m527 139l143 0l0 82l-143 0l0-82z" horiz-adv-x="1000" />
<glyph glyph-name="photo" unicode="&#xe817;" d="m0-125l0 950l1000 0l0-950l-1000 0z m123 309l754 0l0 521l-754 0l0-521z" horiz-adv-x="1000" />
<glyph glyph-name="photo-circled" unicode="&#xe818;" d="m0 350q0 207 147 354t353 146t354-146t146-354t-146-354t-354-146t-353 146t-147 354z m232-254l536 0l0 508l-536 0l0-508z m67 166l0 278l402 0l0-278l-402 0z" horiz-adv-x="1000" />
<glyph glyph-name="th-large" unicode="&#xe819;" d="m0-150l0 438l438 0l0-438l-438 0z m0 563l0 437l438 0l0-437l-438 0z m563-563l0 438l437 0l0-438l-437 0z m0 563l0 437l437 0l0-437l-437 0z" horiz-adv-x="1000" />
<glyph glyph-name="th" unicode="&#xe81a;" d="m0-150l0 250l250 0l0-250l-250 0z m0 375l0 250l250 0l0-250l-250 0z m0 375l0 250l250 0l0-250l-250 0z m375-750l0 250l250 0l0-250l-250 0z m0 375l0 250l250 0l0-250l-250 0z m0 375l0 250l250 0l0-250l-250 0z m375-750l0 250l250 0l0-250l-250 0z m0 375l0 250l250 0l0-250l-250 0z m0 375l0 250l250 0l0-250l-250 0z" horiz-adv-x="1000" />
<glyph glyph-name="th-list" unicode="&#xe81b;" d="m0-150l0 250l250 0l0-250l-250 0z m0 375l0 250l250 0l0-250l-250 0z m0 375l0 250l250 0l0-250l-250 0z m391-750l0 250l609 0l0-250l-609 0z m0 375l0 250l609 0l0-250l-609 0z m0 375l0 250l609 0l0-250l-609 0z" horiz-adv-x="1000" />
<glyph glyph-name="view-mode" unicode="&#xe81c;" d="m0-76l926 926l74-74l-926-926z m0 410l0 235l234 0l0-235l-234 0z m0 280l0 234l234 0l0-234l-234 0z m275-280l0 235l235 0z m0 280l0 234l235 0l0-234l-235 0z m237-762l0 131l488 0l0-131l-488 0z m0 168l0 131l488 0l0-131l-488 0z m31 168l145 131l312 0l0-131l-457 0z" horiz-adv-x="1000" />
<glyph glyph-name="ok" unicode="&#xe81d;" d="m0 260l162 162l166-164l508 510l164-164l-510-510l-162-162l-162 164z" horiz-adv-x="1000" />
<glyph glyph-name="ok-circled" unicode="&#xe81e;" d="m0 350q0 207 147 354t353 146t354-146t146-354t-146-354t-354-146t-353 146t-147 354z m182-57l105-105l104-104l103 104l324 324l-103 104l-324-325l-106 106z" horiz-adv-x="1000" />
<glyph glyph-name="ok-circled2" unicode="&#xe81f;" d="m0 350q0 207 147 354t353 146t354-146t146-354t-146-354t-354-146t-353 146t-147 354z m109 0q0-162 115-276t276-115t276 115t115 276t-115 276t-276 115t-276-115t-115-276z m106-51l94 92l93-94l289 291l94-93l-291-290l-92-93l-93 93z" horiz-adv-x="1000" />
<glyph glyph-name="cancel" unicode="&#xe820;" d="m0 71l279 279l-279 279l221 221l279-279l279 279l221-221l-279-279l279-279l-221-221l-279 279l-279-279z" horiz-adv-x="1000" />
<glyph glyph-name="cancel-circled" unicode="&#xe821;" d="m0 350q0 207 147 354t353 146t354-146t146-354t-146-354t-354-146t-353 146t-147 354z m219-156l125-125l156 156l156-156l125 125l-156 156l156 156l-125 125l-156-156l-156 156l-125-125l156-156z" horiz-adv-x="1000" />
<glyph glyph-name="cancel-circled2" unicode="&#xe822;" d="m0 350q0 207 147 354t353 146t354-146t146-354t-146-354t-354-146t-353 146t-147 354z m109 0q0-162 115-276t276-115t276 115t115 276t-115 276t-276 115t-276-115t-115-276z m145-137l137 137l-137 137l109 109l137-137l137 137l109-109l-137-137l137-137l-109-109l-137 137l-137-137z" horiz-adv-x="1000" />
<glyph glyph-name="plus" unicode="&#xe823;" d="m0 209l0 282l359 0l0 359l282 0l0-359l359 0l0-282l-359 0l0-359l-282 0l0 359l-359 0z" horiz-adv-x="1000" />
<glyph glyph-name="plus-circled" unicode="&#xe824;" d="m0 350q0 207 147 354t353 146t354-146t146-354t-146-354t-354-146t-353 146t-147 354z m219-80l201 0l0-201l160 0l0 201l201 0l0 160l-201 0l0 201l-160 0l0-201l-201 0l0-160z" horiz-adv-x="1000" />
<glyph glyph-name="minus" unicode="&#xe825;" d="m0 209l0 282l1000 0l0-282l-1000 0z" horiz-adv-x="1000" />
<glyph glyph-name="minus-circled" unicode="&#xe826;" d="m0 350q0 207 147 354t353 146t354-146t146-354t-146-354t-354-146t-353 146t-147 354z m213-82l574 0l0 164l-574 0l0-164z" horiz-adv-x="1000" />
<glyph glyph-name="help" unicode="&#xe827;" d="m0 704q2 48 85 97t147 49q122 0 192-72q66-69 66-162q0-49-10-79t-44-83q-4-8-59-76t-77-119t-13-104l-94 2q-29 66-26 131t28 119q14 31 40 74t40 74q20 45-13 89t-76 44q-39 0-60-15t-34-48l-76 0q-22 12-16 79z m123-741q0 47 33 80t80 34t80-34t34-80t-34-80t-80-33t-80 33t-33 80z" horiz-adv-x="490" />
<glyph glyph-name="help-circled" unicode="&#xe828;" d="m0 350q0 207 147 354t353 146t354-146t146-354t-146-354t-354-146t-353 146t-147 354z m316 264q-3-49 12-57l57 0q21 47 70 45q33 0 58-32t10-66q-9-23-29-55t-31-56q-20-41-21-90t21-97l70-2q-8 41 9 79t58 89t45 56q25 39 32 62t7 59q0 71-49 121q-53 55-145 55q-47 0-109-37t-65-74z m94-553q0-35 25-61t59-25t61 25t25 61t-25 60t-61 24t-59-24t-25-60z" horiz-adv-x="1000" />
<glyph glyph-name="info-circled" unicode="&#xe829;" d="m0 350q0 207 147 354t353 146t354-146t146-354t-146-354t-354-146t-353 146t-147 354z m373 66l8-39l35 8q25 0 25-35l0-244q0-20-13-29q-18-12-53-20l8-35q84 8 118 8t118-8l8 35q-35 10-53 20q-10 6-11 11q-2 4-2 18l0 240q0 49 15 90l-19 23q-32 0-90-13t-94-30z m35 195q0-30 20-50q21-18 56-18t57 19t22 49t-22 49t-57 18t-56-17q-20-20-20-50z" horiz-adv-x="1000" />
<glyph glyph-name="home" unicode="&#xe82a;" d="m0-150l0 649l453 351l453-351l0-649l-312 0l0 391l-281 0l0-391l-313 0z" horiz-adv-x="906" />
<glyph glyph-name="home-circled" unicode="&#xe82b;" d="m0 350q0 207 147 354t353 146t354-146t146-354t-146-354t-354-146t-353 146t-147 354z m256-269l168 0l0 210l152 0l0-210l168 0l0 349l-244 190l-244-190l0-349z" horiz-adv-x="1000" />
<glyph glyph-name="website" unicode="&#xe82c;" d="m0-119l0 938l1000 0l0-938l-1000 0z m123 123l754 0l0 692l-754 0l0-692z m82 78l0 166l166 0l0-166l-166 0z m0 219l0 307l588 0l0-307l-588 0z m211-219l0 166l166 0l0-166l-166 0z m211 0l0 166l166 0l0-166l-166 0z" horiz-adv-x="1000" />
<glyph glyph-name="website-circled" unicode="&#xe82d;" d="m0 350q0 207 147 354t353 146t354-146t146-354t-146-354t-354-146t-353 146t-147 354z m234-248l532 0l0 496l-532 0l0-496z m67 64l0 368l400 0l0-368l-400 0z m43 42l88 0l0 87l-88 0l0-87z m0 117l312 0l0 162l-312 0l0-162z m111-117l88 0l0 87l-88 0l0-87z m111 0l90 0l0 87l-90 0l0-87z" horiz-adv-x="1000" />
<glyph glyph-name="attach" unicode="&#xe82e;" d="m0 65q8 68 67 127l383 383q117 115 211 33q84-86-36-209l-353-351l-66 70l349 349q2 0 8 6l8 8t7 9t6 10t6 9t4 11l0 10t-2 12q-19 17-74-37l-381-381q-37-35-41-69q-4-39 35-78q41-33 70-28t71 46q82 80 218 215t194 195q2 2 18 17t17 17t15 16t15 17t12 17t13 19t11 20t10 25q16 57-33 123t-115 75q-68 7-152-73l-418-418l-69 67l418 420q98 95 199 100t190-83q105-107 74-236q-19-74-94-151q-86-83-246-244l-209-209q-70-70-150-72q-68 0-125 57q-70 70-64 156z" horiz-adv-x="896" />
<glyph glyph-name="attach-circled" unicode="&#xe82f;" d="m0 350q0 207 147 354t353 146t354-146t146-354t-146-354t-354-146t-353 146t-147 354z m219-180q-4-52 41-97q35-35 78-35q51 2 96 45q29 31 129 131t156 154q45 48 58 93q20 82-47 149q-52 53-111 53l-8 0q-62-2-125-63l-261-264l43-43l261 262q53 51 96 47q43-6 73-47t21-78q-4-6-6-13t-6-12t-7-10t-8-10t-6-10t-9-9t-9-9t-10-10t-10-9l-122-122l-135-136q-28-25-46-28t-44 17q-24 25-22 49q2 21 26 43l240 240q33 33 45 23q8-17-22-47l-220-220l43-43l220 220q75 76 24 131q-61 51-133-21l-240-241q-37-37-43-80z" horiz-adv-x="1000" />
<glyph glyph-name="lock" unicode="&#xe830;" d="m0-150l0 578l139 0q-2 166 25 231q39 88 116 139t169 52q94 0 172-54t115-137q26-59 26-122l0-109l150 0l0-578l-912 0z m322 578l256 0l0 112q-2 52-38 88t-91 38q-52 2-87-34t-40-94l0-110z" horiz-adv-x="912" />
<glyph glyph-name="lock-circled" unicode="&#xe831;" d="m0 350q0 207 147 354t353 146t354-146t146-354t-146-354t-354-146t-353 146t-147 354z m252-271l496 0l0 314l-82 0l0 59q0 33-14 66q-19 45-62 74t-94 30t-92-29t-62-75q-16-35-14-125l-76 0l0-314z m176 314l0 59q2 31 19 49t45 21l4 0q29-2 49-22t21-48l0-59l-138 0z" horiz-adv-x="1000" />
<glyph glyph-name="lock-open" unicode="&#xe832;" d="m0-150l0 559l152 0l0 138q2 127 88 215q41 39 96 64t119 24q123-2 211-88q86-88 90-209l-178 0q-2 47-37 82q-37 35-86 37q-53-2-88-37q-37-39-37-88l0-138l553 0l0-559l-883 0z" horiz-adv-x="883" />
<glyph glyph-name="lock-open-alt" unicode="&#xe833;" d="m0 350q0 207 147 354t353 146t354-146t146-354t-146-354t-354-146t-353 146t-147 354z m258-225l484 0l0 305l-303 0l0 78q0 28 20 47t49 20q27 2 46-17t20-48l98 0q-2 67-50 116t-114 46q-70-2-115-48t-51-116l0-78l-84 0l0-305z" horiz-adv-x="1000" />
<glyph glyph-name="eye" unicode="&#xe834;" d="m0 350q6 49 64 110q79 80 176 129q129 60 260 60q137-2 260-60q103-53 176-129q64-73 64-110q-6-49-64-109q-79-80-176-129q-129-61-260-61q-137 2-260 61q-103 53-176 129q-64 72-64 109z m264 0q0-94 69-159t167-65t167 65t69 159t-69 159t-167 66t-167-66t-69-159z m86 1q0 60 44 102t106 42t106-42t44-102t-44-102t-106-43t-106 43t-44 102z" horiz-adv-x="1000" />
<glyph glyph-name="eye-off" unicode="&#xe835;" d="m0 326q6 49 64 110q79 80 176 128q129 61 260 61q29 0 59-2l74 129q10 16 23 18q4 0 8-2l51-32q17-7 2-33l-57-102l-47-78l-41-72l-144-250l-41-72l-47-80l-57-100q-15-25-31-15l-53 31q-15 8 0 33l49 86l-8 4q-103 53-176 129q-64 72-64 109z m264 0q0-74 47-133l48 84q-9 24-9 49q0 51 34 91t85 50l49 84l-18 0q-98 0-167-66t-69-159z m177-295l41 71l18 0q98 0 167 65t69 159q0 74-47 133l63 109q2-2 4-3t4-1q103-52 176-129q64-72 64-109q-6-49-64-109q-79-80-176-129q-129-61-260-61q-25 0-59 4z m90 155l110 189q9-25 9-49q0-51-34-90t-85-50z" horiz-adv-x="1000" />
<glyph glyph-name="tag" unicode="&#xe836;" d="m0 483l0 287q2 31 24 54t52 22l287 0q88-6 133-55l426-472q19-28 19-58t-19-52l-334-334q-25-21-57-21t-52 21l-424 475q-55 64-55 133z m125 164q2-31 23-52t51-20q32 0 52 22t21 50q0 33-23 54t-50 20q-33-2-53-23t-21-51z" horiz-adv-x="941" />
<glyph glyph-name="tags" unicode="&#xe837;" d="m0 460l0 240q2 27 21 46t43 19l241 0q43 0 88-28l377-414q17-23 17-48t-17-44l-280-277q-21-18-47-18t-43 18l-355 397q-45 54-45 109z m104 138q0-25 17-42q22-20 46-19t42 19q18 19 18 44t-18 43q-20 18-45 17t-43-17q-17-21-17-45z m316 165l92 0q72-4 109-45l356-397q17-21 17-48t-17-44l-280-277q-60-35-95 8l271 271q18 22 18 47t-18 45l-318 356q-24 31-71 56t-64 28z" horiz-adv-x="994" />
<glyph glyph-name="bookmark" unicode="&#xe838;" d="m0-56l0 906l609 0l0-1000l-304 305l-305-305l0 94z" horiz-adv-x="609" />
<glyph glyph-name="bookmark-empty" unicode="&#xe839;" d="m0-56l0 906l609 0l0-1000l-304 305l-305-305l0 94z m63 62l242 243l242-243l0 782l-484 0l0-782z" horiz-adv-x="609" />
<glyph glyph-name="flag" unicode="&#xe83a;" d="m0-79l0 803q68 41 136 51t124-3t112-35t112-43t114-31t124 2t137 59l0-459q-52-53-109-67t-110 1t-117 40t-124 51t-135 35t-151-11l0-393l-113 0z" horiz-adv-x="859" />
<glyph glyph-name="flag-circled" unicode="&#xe83b;" d="m0 350q0 207 147 354t353 146t354-146t146-354t-146-354t-354-146t-353 146t-147 354z m217-281l76 0l0 258q64 17 117 5t105-34t93-39t88-11t87 45l0 303q-62-39-124-42t-106 17t-105 40t-106 20q-63 2-125-35l0-527z" horiz-adv-x="1000" />
<glyph glyph-name="thumbs-up" unicode="&#xe83c;" d="m0-63l0 552q0 16 10 25t25 11l147 0q33 0 35-36l0-552q0-14-10-24t-25-12l-147 0q-13 0-23 10t-12 26z m277 27l0 500q0 22 14 35t37 16l113 0l114 252q13 31 41 31q37 2 93-61q18-25 25-55t6-48t-9-64t-10-55l248 0q26 0 38-17t11-44l-70-429q-12-42-53-74t-88-38l-459 0q-21 0-35 14t-16 37z" horiz-adv-x="998" />
<glyph glyph-name="thumbs-down" unicode="&#xe83d;" d="m0 212l0 552q2 34 35 34l147 0q35-2 35-34l0-552q-2-16-12-26t-23-10l-147 0q-13 2-24 12t-11 24z m277 23l0 502q2 21 16 35t33 14l459 0q35-2 70-22q55-33 71-88l70-429q2-26-13-43t-36-18l-248 0q8-58 22-117q6-90-94-158q-20-14-43-6q-20 6-31 29l-112 252l-115 0q-21 2-35 16t-14 33z" horiz-adv-x="996" />
<glyph glyph-name="download" unicode="&#xe83e;" d="m0 350q0 207 147 354t353 146t354-146t146-354t-146-354t-354-146t-353 146t-147 354z m109 0q0-162 115-276t276-115t276 115t115 276t-115 276t-276 115t-276-115t-115-276z m170-14l123 0l0 223l196 0l0-223l123 0l-221-207z" horiz-adv-x="1000" />
<glyph glyph-name="download-alt" unicode="&#xe83f;" d="m0-150l0 135l1000 0l0-135l-1000 0z m88 586l228 0l0 414l370 0l0-414l228 0l-414-385z" horiz-adv-x="1000" />
<glyph glyph-name="upload" unicode="&#xe840;" d="m0 350q0 207 147 354t353 146t354-146t146-354t-146-354t-354-146t-353 146t-147 354z m109 0q0-162 115-276t276-115t276 115t115 276t-115 276t-276 115t-276-115t-115-276z m170 14l221 207l221-207l-123 0l0-223l-196 0l0 223l-123 0z" horiz-adv-x="1000" />
<glyph glyph-name="share" unicode="&#xe841;" d="m0-121q0 143 24 256t60 186t95 124t107 76t122 38t114 15t107 2l0 245l371-372l-371-371l0 268q-102 0-151-1t-126-10t-114-26t-86-51t-74-83t-47-124t-31-172z" horiz-adv-x="1000" />
<glyph glyph-name="quote" unicode="&#xe842;" d="m0-62l0 437q0 71 15 129t38 97t61 67t72 45t83 28t82 14t81 7l37-176q-49-9-81-20t-66-31t-48-53t-10-77l131 0l0-467l-395 0z m529 0l0 437q0 71 16 129t38 97t61 67t72 45t83 28t81 14t81 7l39-176q-51-9-83-20t-65-31t-47-53t-12-77l131 0l0-467l-395 0z" horiz-adv-x="1000" />
<glyph glyph-name="quote-circled" unicode="&#xe843;" d="m0 350q0 207 147 354t353 146t354-146t146-354t-146-354t-354-146t-353 146t-147 354z m219-199l222 0l0 262l-74 0q-4 48 27 69t88 34l-21 100q-39-4-64-8t-63-18t-60-35t-39-62t-16-96l0-246z m299 0l222 0l0 262l-74 0q-4 48 26 69t89 34l-21 100q-39-4-65-8t-62-18t-60-35t-39-62t-16-96l0-246z" horiz-adv-x="1000" />
<glyph glyph-name="export" unicode="&#xe844;" d="m0-150l0 1000l494 0l0-164l-330 0l0-672l672 0l0 184l164 174l0-522l-1000 0z m232 277q0 86 12 159t28 124t47 92t57 68t67 45t70 27t72 14t67 6t63 1l0 187l285-285l-285-285l0 205q-108 0-159-3t-121-21t-102-54t-61-107t-40-173z" horiz-adv-x="1000" />
<glyph glyph-name="pencil" unicode="&#xe845;" d="m0-143l68 343l274-273z m137 392l422 422l259-260l-421-422z m531 494q2 39 31 69t69 31t66-26l131-130q25-26 24-66t-30-69t-69-30t-66 24l-131 131q-27 27-25 66z" horiz-adv-x="989" />
<glyph glyph-name="pencil-circled" unicode="&#xe846;" d="m0 350q0 207 147 354t353 146t354-146t146-354t-146-354t-354-146t-353 146t-147 354z m174-287l219 43l-176 176z m86 250l168-166l269 271l-166 166z m342 316q-2-25 15-41l84-84q18-17 43-16t44 19t20 44t-17 43l-84 84q-16 16-39 16q-27 0-47-20q-17-19-19-45z" horiz-adv-x="1000" />
<glyph glyph-name="edit" unicode="&#xe847;" d="m0-150l0 818l188 182l521 0l0-226l31 31l162-160l-380-381l-239-78l76 238l262 262l0 226l-369 0l0-156l-164 0l0-668l533 0l0 143l88 87l0-318l-709 0z m361 264l119 39l-80 82z" horiz-adv-x="902" />
<glyph glyph-name="edit-circled" unicode="&#xe848;" d="m0 350q0 207 147 354t353 146t354-146t146-354t-146-354t-354-146t-353 146t-147 354z m262-316l447 0l0 201l-55-55l0-92l-338 0l0 424l106 0l0 100l232 0l0-145l-166-164l-49-152l153 49l240 242l-102 101l-21-21l0 144l-328 0l-119-115l0-517z m228 168l26 74l50-51z" horiz-adv-x="1000" />
<glyph glyph-name="edit-alt" unicode="&#xe849;" d="m0-150l0 1000l646 0l-164-164l-318 0l0-672l672 0l0 319l164 164l0-647l-1000 0z m363 363l0 118l6 0q39 2 72-30q39-39 39-88l-117 0z m51 176l367 367l125-125l-367-367z m397 397l64 64l125-125l-64-64z" horiz-adv-x="1000" />
<glyph glyph-name="print" unicode="&#xe84a;" d="m0 176l0 305l1000 0l0-305l-154 0l54-265l-800 0l54 265l-154 0z m33 362l235 99l39 0l0 153l386 0l0-153l39 0l235-99l-934 0z m131-553l672 0l-78 381l-516 0z" horiz-adv-x="1000" />
<glyph glyph-name="retweet" unicode="&#xe84b;" d="m0 413l250 250l250-250l-187 0l0-188l125 0l125-125l-375 0l0 313l-188 0z m438 187l374 0l0-312l188 0l-250-250l-250 250l188 0l0 187l-125 0z" horiz-adv-x="1000" />
<glyph glyph-name="comment" unicode="&#xe84c;" d="m0 96l0 713l1000 0l0-713l-473 0l-320-205l0 205l-207 0z" horiz-adv-x="1000" />
<glyph glyph-name="comment-alt" unicode="&#xe84d;" d="m0 192l0 607l854 0l0-607l-405 0l-273-176l0 176l-176 0z m348-112l119 77l129 0l9-6l170-112l0 118l149 0l0 433l-31 0l0 76l107 0l0-586l-148 0l0-179l-59 37l-221 142l-224 0z" horiz-adv-x="1000" />
<glyph glyph-name="bell" unicode="&#xe84e;" d="m0 10l0 45l197 170l0 266q0 107 68 190t171 105l0 62l130 0l0-62q102-22 170-105t69-190l0-266l195-170l0-45l-1000 0z m428-87q0 30 21 52t52 21t52-21t21-52t-21-51t-52-20t-52 20t-21 51z" horiz-adv-x="1000" />
<glyph glyph-name="warning" unicode="&#xe84f;" d="m0-150l500 1000l500-1000l-1000 0z m461 180l78 0l0 82l-78 0l0-82z m0 342l19-186l40 0l19 186l0 130l-78 0l0-130z" horiz-adv-x="1000" />
<glyph glyph-name="exclamation" unicode="&#xe850;" d="m0 350q0 207 147 354t353 146t354-146t146-354t-146-354t-354-146t-353 146t-147 354z m318 402l79-550l207 0l78 550l-364 0z m77-696q0-44 31-76t76-32t76 32t31 76t-31 76t-76 33t-76-33t-31-76z" horiz-adv-x="1000" />
<glyph glyph-name="error" unicode="&#xe851;" d="m0 350q0 207 147 354t353 146t354-146t146-354t-146-354t-354-146t-353 146t-147 354z m137 0q0-150 106-257t257-106t257 106t106 257t-106 257t-257 106t-257-106t-106-257z m97-98l0 196l532 0l0-196l-532 0z" horiz-adv-x="1000" />
<glyph glyph-name="error-alt" unicode="&#xe852;" d="m0 350q0 207 147 354t353 146t354-146t146-354t-146-354t-354-146t-353 146t-147 354z m164-133l672 0l0 266l-672 0l0-266z" horiz-adv-x="1000" />
<glyph glyph-name="location" unicode="&#xe853;" d="m0 473q0 156 110 267t267 110t267-110t110-267q0-123-53-193l-324-430l-324 430q-53 70-53 193z m219 0q0-66 46-112t112-46t112 46t46 112t-46 112t-112 46t-112-46t-46-112z" horiz-adv-x="754" />
<glyph glyph-name="location-circled" unicode="&#xe854;" d="m0 350q0 207 147 354t353 146t354-146t146-354t-146-354t-354-146t-353 146t-147 354z m250 82q0-82 35-129l215-283l215 283q35 47 35 129q0 104-73 176t-177 72t-177-72t-73-176z m145-1q0 44 31 74t74 31t74-31t31-74t-31-74t-74-30t-74 30t-31 74z" horiz-adv-x="1000" />
<glyph glyph-name="compass" unicode="&#xe855;" d="m0 349q0 188 134 322t322 134t321-134t133-322t-133-321t-321-133t-322 133t-134 321z m63 1q0-162 115-277t277-116t277 116t116 277t-116 277t-277 116t-277-116t-115-277z m138-234l186 302l302 186l20-22l-184-302l-302-184z" horiz-adv-x="910" />
<glyph glyph-name="compass-circled" unicode="&#xe856;" d="m0 349q0 188 134 322t322 134t321-134t133-322t-133-321t-321-133t-322 133t-134 321z m184-249l21-23l324 199l200 324l-24 21l-324-197z" horiz-adv-x="910" />
<glyph glyph-name="trash" unicode="&#xe857;" d="m0 633l0 141l289 0l0 76l246 0l0-76l289 0l0-141l-824 0z m43-783l0 676l738 0l0-676l-738 0z" horiz-adv-x="824" />
<glyph glyph-name="trash-circled" unicode="&#xe858;" d="m0 350q0 207 147 354t353 146t354-146t146-354t-146-354t-354-146t-353 146t-147 354z m242 178l516 0l0 88l-180 0l0 46l-156 0l0-46l-180 0l0-88z m28-490l460 0l0 421l-460 0l0-421z" horiz-adv-x="1000" />
<glyph glyph-name="doc" unicode="&#xe859;" d="m0-150l0 674l338 0l0 326l371 0l0-1000l-709 0z m0 756l0 62l189 182l65 0l0-244l-254 0z" horiz-adv-x="709" />
<glyph glyph-name="doc-circled" unicode="&#xe85a;" d="m0 350q0 207 147 354t353 146t354-146t146-354t-146-354t-354-146t-353 146t-147 354z m316-260l368 0l0 520l-192 0l0-170l-176 0l0-350z m0 393l131 0l0 127l-33 0l-98-96l0-31z" horiz-adv-x="1000" />
<glyph glyph-name="doc-new" unicode="&#xe85b;" d="m0-150l0 818l188 182l519 0l0-348l-86 0l0 260l-369 0l0-156l-166 0l0-668l418 0l0-88l-504 0z m373 207l0 162l209 0l0 207l160 0l0-207l207 0l0-162l-207 0l0-207l-160 0l0 207l-209 0z" horiz-adv-x="949" />
<glyph glyph-name="doc-new-circled" unicode="&#xe85c;" d="m0 350q0 207 147 354t353 146t354-146t146-354t-146-354t-354-146t-353 146t-147 354z m264-271l295 0l0 52l-245 0l0 391l98 0l0 92l215 0l0-153l53 0l0 204l-305 0l-111-106l0-480z m218 123l123 0l0-123l94 0l0 123l121 0l0 93l-121 0l0 121l-94 0l0-121l-123 0l0-93z" horiz-adv-x="1000" />
<glyph glyph-name="folder" unicode="&#xe85d;" d="m0-52l0 715l139 0l68 90l217 0l68-90l508 0l0-715l-1000 0z" horiz-adv-x="1000" />
<glyph glyph-name="folder-circled" unicode="&#xe85e;" d="m0 350q0 207 147 354t353 146t354-146t146-354t-146-354t-354-146t-353 146t-147 354z m201-240l598 0l0 426l-303 0l-41 54l-129 0l-43-54l-82 0l0-426z" horiz-adv-x="1000" />
<glyph glyph-name="folder-close" unicode="&#xe85f;" d="m0-52l0 560l1000 0l0-560l-1000 0z m0 594l0 121l139 0l68 90l217 0l68-90l508 0l0-121l-1000 0z" horiz-adv-x="1000" />
<glyph glyph-name="folder-open" unicode="&#xe860;" d="m0-52l0 55l147 505l853 0l-172-560l-828 0z m0 205l0 510l139 0l68 90l217 0l68-90l336 0l0-121l-724 0z" horiz-adv-x="1000" />
<glyph glyph-name="rss" unicode="&#xe861;" d="m0-150l0 199q82 0 141-58t58-141l-199 0z m0 400l0 200q248 0 424-176t176-424l-200 0q0 166-117 283t-283 117z m0 401l0 199q203 0 389-79t319-213t213-319t79-389l-199 0q0 217-108 401t-292 292t-401 108z" horiz-adv-x="1000" />
<glyph glyph-name="phone" unicode="&#xe862;" d="m0 615q0 50 28 76l138 138q45 37 77-13l113-211q18-39-14-71l-51-52q-5-6-5-14q25-98 132-195l31-30t36-34t34-26t41-25t40-14q20-6 27 2l61 60q39 30 72 12l203-121q22-14 25-37t-13-39l-141-139q-27-27-74-27q-140 4-318 121q-258 185-375 406q-72 151-67 233z" horiz-adv-x="988" />
<glyph glyph-name="phone-circled" unicode="&#xe863;" d="m0 350q0 207 147 354t353 146t354-146t146-354t-146-354t-354-146t-353 146t-147 354z m199 162q-4-51 41-142q71-133 229-248q107-71 193-73q29 0 47 16l84 86q10 10 8 23t-16 24l-123 72q-19 12-45-6l-35-37q-6-6-18-2q-11 2-24 8t-25 16t-21 16t-21 21t-20 17q-64 61-80 119q0 4 4 10l31 31q18 18 8 43l-68 129q-12 18-28 16q-9 0-19-8l-84-86q-18-16-18-45z" horiz-adv-x="1000" />
<glyph glyph-name="cog" unicode="&#xe864;" d="m0 272l0 156l150 16q14 45 38 88l-96 117l109 109l117-95q41 23 88 37l16 150l156 0l16-150q45-14 88-37l117 95l109-109l-96-117q24-43 38-88l150-16l0-156l-150-16q-14-47-38-88l96-117l-109-109l-117 96q-43-24-88-38l-16-150l-156 0l-16 150q-47 14-88 38l-117-96l-109 109l96 117q-24 41-38 88z m355 78q0-60 42-102t103-42t103 42t42 102t-42 103t-103 42t-103-42t-42-103z" horiz-adv-x="1000" />
<glyph glyph-name="cog-circled" unicode="&#xe865;" d="m0 350q0 207 147 354t353 146t354-146t146-354t-146-354t-354-146t-353 146t-147 354z m195-47l92-10q8-29 22-52l-59-73l68-68l73 59q23-14 52-22l10-92l94 0l10 92q29 8 52 22l73-59l68 68l-59 73q14 23 22 52l92 10l0 94l-92 10q-8 29-22 52l59 73l-68 68l-73-59q-23 14-52 22l-10 92l-94 0l-10-92q-29-8-52-22l-73 59l-68-68l59-73q-14-23-22-52l-92-10l0-94z m217 47q0 37 26 63t62 25t63-25t25-63t-25-62t-63-26t-62 26t-26 62z" horiz-adv-x="1000" />
<glyph glyph-name="cogs" unicode="&#xe866;" d="m0 245l0 97l94 8q8 30 23 55l-60 74l68 69l74-61q26 16 55 23l8 94l97 0l10-94q29-7 55-23l74 61l68-69l-60-74q16-25 23-55l94-8l0-97l-94-10q-7-29-23-55l60-72l-68-70l-74 60q-26-15-55-23l-10-94l-97 0l-8 94q-29 8-55 23l-74-60l-68 70l60 72q-15 26-23 55z m221 49q0-37 26-64t64-26t63 26t26 64t-26 63t-63 26t-64-26t-26-63z m318 238l8 72l70-2q8 22 20 39l-37 57l54 45l49-49q20 10 41 14l14 66l72-8l-2-68q22-8 39-22l57 39l45-54l-49-49q10-20 12-43l68-14l-8-70l-68 0q-8-20-22-37l39-59l-56-45l-47 49q-22-8-43-12l-14-66l-70 6l0 70q-20 8-37 20l-59-37l-45 54l49 49q-8 20-12 41z m31-446l6 51l49 0q6 16 14 28l-26 43l37 33l36-37q13 7 29 9l10 49l48-6l0-48q16-6 28-16l41 27l31-41l-35-35q6-14 10-29l47-12l-6-51l-49 0q-4-15-14-27l28-43l-40-33l-35 37q-13-8-29-10l-10-49l-49 6l0 51q-13 4-27 14l-41-28l-31 41l35 35q-6 14-8 30z m118 14q-4-21 8-36t32-18t34 10t17 33t-10 36t-31 18l-6 0q-17 0-31-13t-13-30z m17 451q-4-27 14-49t45-24t48 15t23 45t-14 47t-44 25l-7 0q-26 0-44-17t-21-42z" horiz-adv-x="1000" />
<glyph glyph-name="wrench" unicode="&#xe867;" d="m0 21l463 463q-25 68-10 145t72 134t133 72t147-10l-162-162l45-117l115-45l164 164q25-70 9-147t-73-133t-132-72t-148 8l-463-462z m113-2q0-20 14-34t33-13t33 13t14 34t-14 33t-33 14t-33-14t-14-33z" horiz-adv-x="982" />
<glyph glyph-name="wrench-circled" unicode="&#xe868;" d="m0 350q0 207 147 354t353 146t354-146t146-354t-146-354t-354-146t-353 146t-147 354z m199-201l100-100l283 284q41-16 89-6t82 44t44 81t-6 89l-100-99l-72 27l-27 72l99 100q-25 10-54 10q-69 0-115-49q-36-33-45-81t5-89z m77-23q-20 21 1 42q20 20 41 0q20-21-1-42t-41 0z" horiz-adv-x="1000" />
<glyph glyph-name="basket" unicode="&#xe869;" d="m2 791q8 20 27 29t38 4l150-48q32-10 35-43l10-84l686-77q23-5 35-22t10-38l-43-238q-8-43-49-43l-608 0l-11-69l578 0q21 0 36-14t15-36q-2-22-17-37t-34-14l-641 0q-25 2-39 19t-12 41l28 149l-41 418l-119 39q-45 17-34 64z m217-839q0 32 24 56t55 23t56-23t23-56t-23-55t-56-24t-55 24t-24 55z m469 0q0 32 23 56t56 23t56-23t23-56t-23-55t-56-24t-56 24t-23 55z" horiz-adv-x="993" />
<glyph glyph-name="basket-circled" unicode="&#xe86a;" d="m0 350q0 207 147 354t353 146t354-146t146-354t-146-354t-354-146t-353 146t-147 354z m213 246q6-12 18-15l68-22l25-246l-15-88q-2-14 6-23t23-12l377 0q12 0 20 9t9 20t-9 21t-20 10l-342 0l8 40l357 0q24 0 30 25l25 141q2 11-6 22t-21 13l-403 45l-6 48q-2 20-19 28l-90 27q-12 4-23-2q-26-15-12-41z m123-471q0-19 14-33t33-13t33 13t14 33t-14 34t-33 13t-33-13t-14-34z m275 0q0-19 14-33t33-13t33 13t14 33t-14 34t-33 13t-33-13t-14-34z" horiz-adv-x="1000" />
<glyph glyph-name="calendar" unicode="&#xe86b;" d="m0-150l0 649l893 0l0-649l-893 0z m0 705l0 221l109 0l0-141l200 0l0 141l275 0l0-141l199 0l0 141l110 0l0-221l-893 0z m168 139l0 156l82 0l0-156l-82 0z m59-619q0-112 123-112q47 0 84 32q39 31 39 80q0 68-78 90q48 15 64 48q12 28-2 73q-27 62-107 62q-51 0-86-26t-37-77l72 0q0 45 49 46q43 0 45-52q0-49-84-47l0-57q48 0 68-8q23-11 23-46q0-57-54-61q-43 0-47 55l-72 0z m281 146q49 14 88 47l0-297l70 0l0 371l-64 0q-38-37-94-58l0-63z m135 473l0 156l82 0l0-156l-82 0z" horiz-adv-x="893" />
<glyph glyph-name="calendar-circled" unicode="&#xe86c;" d="m0 350q0 207 147 354t353 146t354-146t146-354t-146-354t-354-146t-353 146t-147 354z m219-314l562 0l0 408l-562 0l0-408z m0 443l562 0l0 139l-68 0l0-88l-127 0l0 88l-172 0l0-88l-127 0l0 88l-68 0l0-139z m105 88l53 0l0 98l-53 0l0-98z m37-391l47 0q2-35 30-35q33 2 33 39q0 24-16 29q-12 6-43 6l0 35q53-2 53 30q0 33-27 33q-32-2-32-29l-45 0q2 31 25 47t53 17q51 0 67-39q10-27 2-45q-10-21-39-31q49-14 49-57q-2-31-26-51t-53-19q-78 0-78 70z m178 92l0 39q35 16 59 37l41 0l0-234l-45 0l0 189q-24-21-55-31z m84 299l53 0l0 98l-53 0l0-98z" horiz-adv-x="1000" />
<glyph glyph-name="mic" unicode="&#xe86d;" d="m0 131l0 282l64 0l0-248q120-96 270-96t270 96l0 248l64 0l0-282q-31-27-64-50q-82-53-178-71l0 32l-184 0l0-32q-95 18-178 71q-33 23-64 50z m109 90l0 549q30 25 69 45l0-113l54 0l0 134q38 12 75 14l0-148l54 0l0 148q37-4 77-14l0-134l54 0l0 111q37-18 67-43l0-549q-98-80-225-80t-225 80z m26-303l107 0l0 92q45-8 92-8t92 8l0-92l107 0l0-68l-398 0l0 68z" horiz-adv-x="668" />
<glyph glyph-name="mic-circled" unicode="&#xe86e;" d="m0 350q0 207 147 354t353 146t354-146t146-354t-146-354t-354-146t-353 146t-147 354z m283-142q20-18 43-32q53-35 115-47l0 22l118 0l0-22q62 12 115 47q23 14 43 32l0 183l-43 0l0-162q-76-63-174-63t-174 63l0 162l-43 0l0-183z m71 58q64-53 146-53t146 53l0 358q-19 15-44 27l0-72l-36 0l0 87q-23 6-48 8l0-95l-36 0l0 95q-25 0-48-8l0-87l-36 0l0 74q-25-14-44-29l0-358z m15-240l262 0l0 43l-72 0l0 60q-30-5-59-5t-59 5l0-60l-72 0l0-43z" horiz-adv-x="1000" />
<glyph glyph-name="volume-off" unicode="&#xe86f;" d="m0 551l305 0l345 282l0-965l-345 279l-229 0z m713-283q0 4 2 6l76 76l-76 76q-2 2-2 6t2 6l53 53q2 2 5 2t6-2l76-76l77 76q4 2 6 2t5-2l55-53q2-2 2-6t-2-6l-76-76l76-76q2-4 2-7t-2-5l-55-55q-2-1-5-1t-6 1l-77 79l-76-79q-2-1-5-1t-6 1l-53 55q-2 2-2 6z" horiz-adv-x="1000" />
<glyph glyph-name="volume-down" unicode="&#xe870;" d="m0 141l0 418l236 0l358 291l0-1000l-358 291l-236 0z m656 37q74 74 74 174q0 104-74 180l73 74q103-106 107-256q0-144-107-246z" horiz-adv-x="836" />
<glyph glyph-name="volume" unicode="&#xe871;" d="m0 142l0 416l236 0l354 289l0-994l-354 289l-236 0z m652 35q73 74 73 176t-73 178l71 74q105-106 107-254q0-145-107-246z m118-119q123 119 123 295t-123 299l76 74q154-154 154-372t-154-372z" horiz-adv-x="1000" />
<glyph glyph-name="volume-up" unicode="&#xe872;" d="m0 169l0 360l203 0l307 250l0-858l-307 248l-203 0z m563 33q62 63 62 151t-62 152l60 65q90-90 92-219q0-125-92-213z m101-105q106 105 106 256t-106 258l66 62q131-133 131-319t-131-321z m100-98q146 147 146 354t-146 353l62 65q82-82 128-190t46-227t-46-229t-128-190z" horiz-adv-x="1000" />
<glyph glyph-name="headphones" unicode="&#xe873;" d="m0 69l0 250q0 207 147 353t353 147t354-147t146-353l0-250q-4-41-35-54t-61 5t-29 49l0 250q0 156-109 265t-266 110t-266-110t-109-265l0-250q-4-41-35-54t-61 5t-29 49z m188-157l0 313q0 14 8 22t23 9l62 0q14 0 23-9t9-22l0-313q0-13-9-22t-23-9l-62 0q-14 0-23 9t-8 22z m500 0l0 313q0 14 8 22t23 9l62 0q14 0 23-9t9-22l0-313q0-13-9-22t-23-9l-62 0q-14 0-23 9t-8 22z" horiz-adv-x="1000" />
<glyph glyph-name="clock" unicode="&#xe874;" d="m0 349q0 188 134 322t322 134t321-134t133-322t-133-321t-321-133t-322 133t-134 321z m119 0q0-140 99-238t238-99t238 99t99 238t-99 238t-238 99t-238-99t-99-238z m172-69l0 117l117 0l0 213l117 0l0-330l-234 0z" horiz-adv-x="910" />
<glyph glyph-name="clock-circled" unicode="&#xe875;" d="m0 350q0 207 147 354t353 146t354-146t146-354t-146-354t-354-146t-353 146t-147 354z m268 90l236-236l338 337l-90 90l-248-248l-147 147l-9-10l-71-70z" horiz-adv-x="1000" />
<glyph glyph-name="lightbulb" unicode="&#xe876;" d="m1 309q-2 12 7 22t22 11l90 16q14 2 26-5t13-20t-7-23t-24-13l-88-13q-14-2-25 5t-14 20z m2 251q-6 13 0 24t19 16t26-4l82-35q14-6 19-18t0-23t-18-16t-26 0l-82 39q-14 4-20 17z m160 207q2 13 14 21q10 5 22 2t21-16l49-76q7-12 5-26t-11-19t-23-3t-20 15l-51 76q-8 13-6 26z m57-241q17 39 49 66t75 41t94 14l4 0q51 0 94-14t75-41t50-66q43-104-15-227q-22-43-47-92q-14-25-25-73t-16-61q-4-12-16-14l-203 0q-12 2-18 14q-29 111-39 134q-25 49-47 92q-58 131-15 227z m99-623q0 8 5 12t13 5l209 0q6 0 11-5t5-12l0-35q0-8-5-13t-11-5l-209 0q-18 0-18 18l0 35z m0 68l0 35q0 18 18 18l209 0q6 0 11-5t5-13l0-35q0-8-5-13t-11-4l-209 0q-8 0-13 4t-5 13z m94 754l0 90q0 16 8 25t21 10q12 0 21-10t9-25l0-90q0-14-9-23t-21-10q-13 0-21 10t-8 23z m193-53q-1 14 6 26l49 76q10 12 22 16t23-2q10-8 12-21t-6-26l-49-76q-10-12-21-15t-23 3t-13 19z m118-339q2 13 12 20t25 5l90-16q13-2 22-12t7-21q-2-14-13-21t-26-4l-90 13q-14 2-22 13t-5 23z m8 187q-4 12 1 23t18 18l84 35q12 8 24 4t19-16t0-24t-20-17l-82-39q-13-4-26 0t-18 16z" horiz-adv-x="881" />
<glyph glyph-name="lightbulb-alt" unicode="&#xe877;" d="m0 350q0 207 147 354t353 146t354-146t146-354t-146-354t-354-146t-353 146t-147 354z m225-25q2-8 8-13t15-5l57 10q9 2 14 8t5 13q-2 8-10 14q-3 2-11 2l-4 0l-57-10q-8 0-13-6t-4-13z m1 171q-3-7 1-15t11-12l51-21q10-4 18-2t9 10q4 7 0 14t-11 11l-51 23q-4 2-10 2l-6 0q-9-4-12-10z m100 114q-2-8 4-16l31-47q4-7 13-10t15 3q6 3 7 11t-3 16l-32 49q-4 8-11 9l-6 0q-6 0-10-1q-6-6-8-14z m45-291q16-33 29-59q10-21 14-37q2-8 5-23t7-26q2-6 10-8l128 0q6 2 10 8q4 10 7 29t5 20q4 16 14 37l29 59q37 82 10 142q-12 24-32 40t-47 26t-60 9l-2 0q-62 0-105-34q-75-74-22-183z m53-272q0-9 10-9l132 0q10 0 10 9l0 24q0 9-10 9l-132 0q-10 0-10-9l0-24z m0 65q0-10 10-10l132 0q10 0 10 10l0 23q0 10-10 10l-132 0q-10 0-10-10l0-23z m58 472q0-7 5-14t14-7t14 7t5 14l0 57q0 10-5 16t-13 5l-2 0q-8 0-12-5q-6-6-6-16l0-57z m123-33q0-8 6-12q6-5 15-3t13 11l31 47q10 18-4 29q-4 2-10 2l-6 0q-7-2-11-9l-32-49q-3-8-2-16z m71-213q0-8 5-13t14-8l57-10q8 0 15 5t8 13t-4 13t-13 6l-57 10l-6 0q-6 0-9-2q-8-6-10-14z m8 117q2-7 9-9t18 2l51 21q8 4 11 12t1 14t-12 11l-6 0q-6 0-10-2l-51-23q-7-4-11-11t0-15z" horiz-adv-x="1000" />
<glyph glyph-name="block" unicode="&#xe878;" d="m0 349q0 188 134 322t322 134t321-134t133-322t-133-321t-321-133t-322 133t-134 321z m115 27q-9-126 63-225l476 476q-99 73-225 63t-215-99t-99-215z m143-305q99-73 224-63t215 100t100 215t-63 224z" horiz-adv-x="910" />
<glyph glyph-name="resize-full" unicode="&#xe879;" d="m0-150l0 441l148-148l202 201l144-144l-201-202l148-148l-441 0z m506 650l201 202l-148 148l441 0l0-441l-148 148l-202-201z" horiz-adv-x="1000" />
<glyph glyph-name="resize-full-alt" unicode="&#xe87a;" d="m0-150l0 342l119-119l278 277l-276 275l-121-121l0 346l342 0l-119-119l277-277l275 275l-121 121l346 0l0-342l-119 119l-277-277l275-275l121 121l0-346l-342 0l119 119l-277 278l-275-276l121-121l-346 0z" horiz-adv-x="1000" />
<glyph glyph-name="resize-small" unicode="&#xe87b;" d="m0-4l201 202l-148 146l441 0l0-441l-146 148l-201-201z m506 360l0 441l146-148l202 201l146-146l-201-202l148-146l-441 0z" horiz-adv-x="1000" />
<glyph glyph-name="resize-vertical" unicode="&#xe87c;" d="m0 104l170 0l0 492l-170 0l254 254l254-254l-170 0l0-492l170 0l-254-254z" horiz-adv-x="508" />
<glyph glyph-name="resize-horizontal" unicode="&#xe87d;" d="m0 350l254 254l0-170l492 0l0 170l254-254l-254-254l0 170l-492 0l0-170z" horiz-adv-x="1000" />
<glyph glyph-name="move" unicode="&#xe87e;" d="m0 350l172 172l0-119l275 0l0 275l-119 0l172 172l172-172l-119 0l0-275l275 0l0 119l172-172l-172-172l0 119l-275 0l0-275l119 0l-172-172l-172 172l119 0l0 275l-275 0l0-119z" horiz-adv-x="1000" />
<glyph glyph-name="zoom-in" unicode="&#xe87f;" d="m0 403q0 185 131 316t316 131t318-131t131-316q0-141-82-256l186-186l-111-111l-186 186q-115-82-256-82q-185 0-316 131t-131 318z m127 0q0-133 94-227t226-93t227 93t94 227t-94 225t-227 93t-226-93t-94-225z m129-65l0 127l129 0l0 129l127 0l0-129l129 0l0-127l-129 0l0-129l-127 0l0 129l-129 0z" horiz-adv-x="1000" />
<glyph glyph-name="zoom-out" unicode="&#xe880;" d="m0 403q0 185 131 316t316 131t318-131t131-316q0-141-82-256l186-186l-111-111l-186 186q-115-82-256-82q-185 0-316 131t-131 318z m127 0q0-133 94-227t226-93t227 93t94 227t-94 225t-227 93t-226-93t-94-225z m129-65l0 127l385 0l0-127l-385 0z" horiz-adv-x="1000" />
<glyph glyph-name="down-open" unicode="&#xe881;" d="m0 526l148 148l352-351l352 351l148-148l-352-352l-148-148l-148 148z" horiz-adv-x="1000" />
<glyph glyph-name="left-open" unicode="&#xe882;" d="m0 350l148 149l352 351l148-148l-351-352l351-352l-148-148l-352 352z" horiz-adv-x="648" />
<glyph glyph-name="right-open" unicode="&#xe883;" d="m0-2l352 352l-352 352l148 148l352-351l148-149l-148-148l-352-352z" horiz-adv-x="648" />
<glyph glyph-name="up-open" unicode="&#xe884;" d="m0 174l352 352l148 148l148-148l352-352l-148-148l-352 351l-352-351z" horiz-adv-x="1000" />
<glyph glyph-name="down" unicode="&#xe885;" d="m0 436l211 0l0 414l359 0l0-414l211 0l-390-586z" horiz-adv-x="781" />
<glyph glyph-name="left" unicode="&#xe886;" d="m0 350l586 391l0-211l414 0l0-360l-414 0l0-211z" horiz-adv-x="1000" />
<glyph glyph-name="music" unicode="&#xe801;" d="m1-16q-8 57 38 103t118 57q64 10 119-17l25 652l690 53q-32-727-34-756q-1-51-45-91t-109-50q-72-10-129 22t-64 89t37 105t117 58q68 9 125-22l25 465l-539-55l-5-131q-6-131-12-277t-8-176l0-6q-6-50-49-89t-107-47q-70-10-127 23t-66 90z" horiz-adv-x="991" />
<glyph glyph-name="up" unicode="&#xe888;" d="m0 264l391 586l390-586l-211 0l0-414l-359 0l0 414l-211 0z" horiz-adv-x="781" />
<glyph glyph-name="down-circled" unicode="&#xe889;" d="m0 350q0 207 147 354t353 146t354-146t146-354t-146-354t-354-146t-353 146t-147 354z m248 55l252-377l252 377l-135 0l0 267l-234 0l0-267l-135 0z" horiz-adv-x="1000" />
<glyph glyph-name="left-circled" unicode="&#xe88a;" d="m0 350q0 207 147 354t353 146t354-146t146-354t-146-354t-354-146t-353 146t-147 354z m178 0l377-252l0 135l267 0l0 234l-267 0l0 135z" horiz-adv-x="1000" />
<glyph glyph-name="right-circled" unicode="&#xe88b;" d="m0 350q0 207 147 354t353 146t354-146t146-354t-146-354t-354-146t-353 146t-147 354z m178-117l267 0l0-135l377 252l-377 252l0-135l-267 0l0-234z" horiz-adv-x="1000" />
<glyph glyph-name="up-circled" unicode="&#xe88c;" d="m0 350q0 207 147 354t353 146t354-146t146-354t-146-354t-354-146t-353 146t-147 354z m248-55l135 0l0-267l234 0l0 267l135 0l-252 377z" horiz-adv-x="1000" />
<glyph glyph-name="down-hand" unicode="&#xe88d;" d="m0 281q-2 59 8 117t25 124t14 94l0 170q2 27 21 45t44 19l347 0q26-2 44-20t19-44l0-155q17-23 58-60t57-59q18-21 41-35q22-10 77-19t79-30q24-56-4-115t-82-78q-76-27-170 17q0-54-1-273q-4-57-39-93t-88-36q-53 0-88 38t-37 91l0 107q-32 6-57 22q-68-10-119 33q-72 4-110 42t-39 98z m59 30q-2-55 26-83t91-19q14-27 47-36t59 7q58-58 107-10l0-191q2-27 20-45t41-20q29 2 45 20t19 45l0 365q23-4 66-20t74-28t66-4t58 42q13 26 9 47q-2 4-4 5t-7 1q-45 8-69 13t-55 20t-54 41q-14 18-68 68t-71 87l0 4l-347 0q0-24-15-84t-25-116t-13-109z" horiz-adv-x="845" />
<glyph glyph-name="left-hand" unicode="&#xe88e;" d="m0 377q0 55 36 89t93 38q219 2 273 2q-45 94-17 170q19 54 78 82t115 4q22-24 30-79t19-78q14-23 35-41q22-15 59-56t60-59l155 0q25 0 43-18t21-44l0-348q0-25-19-44t-45-20l-170 0q-28 0-94-15t-124-24t-117-8t-98 39t-42 109q-43 51-33 119q-16 26-22 57l-107 0q-53 2-91 37t-38 88z m65 0q1-23 19-41t45-20l191 0q-48-48 10-107q-16-25-7-59t36-46q-9-63 19-91t83-27t109 13t116 25t84 15l0 348l-4 0q-37 15-87 70t-68 68q-25 22-41 54t-20 56t-13 68q0 4-1 7t-5 5q-21 4-47-10q-35-21-42-58t4-66t28-73t20-67l-365 0q-27-2-45-18t-20-46z" horiz-adv-x="1000" />
<glyph glyph-name="right-hand" unicode="&#xe88f;" d="m0 39l0 348q2 25 21 44t44 18l154 0q23 18 60 59t59 56q21 18 35 41q10 22 19 78t30 79q57 23 115-4t78-82q28-76-17-170q54 0 273-2q57-4 93-38t36-89q0-53-38-88t-91-37l-107 0q-6-31-22-57q10-68-33-119q-4-72-42-109t-98-39t-117 8t-124 24t-94 15l-170 0q-27 2-45 20t-19 44z m231 0q23 0 83-15t116-25t109-13t83 27t19 91q27 13 36 46t-7 59q59 59 10 107l191 0q27 2 45 20t20 41q-2 29-20 46t-45 18l-365 0q4 24 20 67t28 73t4 66t-42 58q-26 14-47 10q-4-2-5-5t-1-7q-8-45-13-68t-20-56t-41-54q-18-13-68-68t-87-70l-3 0l0-348z" horiz-adv-x="1000" />
<glyph glyph-name="up-hand" unicode="&#xe890;" d="m0 419q2 60 39 98t110 42q51 43 119 33q25 16 57 22l0 107q2 53 37 91t88 38q54 0 88-36t39-93q1-219 1-273q94 45 170 17q55-19 82-78t4-115q-23-22-79-30t-77-19q-23-14-41-35q-16-21-57-59t-58-60l0-154q0-26-19-44t-44-21l-347 0q-26 0-44 19t-21 46l0 169q0 28-14 94t-25 124t-8 117z m59-30q2-55 13-109t25-115t15-84l347 0l0 3q16 38 71 87t68 68q21 25 54 41t55 20t69 13q4 0 7 1t4 5q4 21-9 47q-22 35-58 42t-66-4t-74-28t-66-20l0 365q-2 27-19 45t-45 20q-24-2-41-20t-20-45l0-191q-49 49-107-10q-26 16-59 7t-47-36q-62 9-91-19t-26-83z" horiz-adv-x="845" />
<glyph glyph-name="cw" unicode="&#xe891;" d="m0 350q0 207 147 354t353 146q209 0 355-148l145 103l0-465l-445 149l131 93q-82 65-186 65q-123 0-210-87t-87-210t87-210t210-87q82 0 150 40t108 109l176-102q-67-113-182-182t-252-68q-207 0-353 146t-147 354z" horiz-adv-x="1000" />
<glyph glyph-name="cw-circled" unicode="&#xe892;" d="m0 350q0 207 147 354t353 146t354-146t146-354t-146-354t-354-146t-353 146t-147 354z m211 0q0-119 85-204t204-85q80 0 146 39t104 106l-102 58q-21-39-61-62t-87-24q-70 0-121 51t-51 121t51 121t121 51q61 0 107-37l-76-55l258-86l0 270l-84-61q-84 86-205 86q-119 0-204-85t-85-204z" horiz-adv-x="1000" />
<glyph glyph-name="arrows-cw" unicode="&#xe893;" d="m0-150l0 402l402 0l-160-160q108-107 258-107q125 0 222 75t130 192l138 0q-35-173-173-288t-317-114q-207 0-353 146z m10 598q35 174 173 288t317 114q207 0 354-146l146 146l0-402l-402 0l160 160q-108 107-258 107q-125 0-222-75t-130-192l-138 0z" horiz-adv-x="1000" />
<glyph glyph-name="shuffle" unicode="&#xe894;" d="m0 44l0 123l145 0q27 0 33 3t23 22q10 12 139 195q111 160 160 209q63 65 137 65l142 0l0 154l221-221l-221-218l0 162l-142 0q-16 0-23-4t-28-26q-39-39-145-191q-23-31-58-84t-54-78t-36-45q-59-66-148-66l-145 0z m0 494l0 123l145 0q89 0 148-69q23-25 61-78q-2-4-7-10t-7-11q-22-29-51-71q-2-3-6-8t-6-7q-58 84-76 103q-17 22-23 25t-33 3l-145 0z m430-346q43 64 60 90q4 4 8 10t6 7q57-76 82-103q21-22 28-25t23-4l142 0l0 158l221-219l-221-221l0 159l-142 0q-74 0-137 64q-29 29-70 84z" horiz-adv-x="1000" />
<glyph glyph-name="play" unicode="&#xe895;" d="m0-25l0 750l625-375z" horiz-adv-x="625" />
<glyph glyph-name="play-circled" unicode="&#xe896;" d="m0 350q0 207 147 354t353 146t354-146t146-354t-146-354t-354-146t-353 146t-147 354z m375-250l375 250l-375 250l0-500z" horiz-adv-x="1000" />
<glyph glyph-name="play-circled2" unicode="&#xe897;" d="m0 350q0 207 147 354t353 146t354-146t146-354t-146-354t-354-146t-353 146t-147 354z m115 0q0-158 114-271t271-114t271 114t114 271t-114 272t-271 113t-271-113t-114-272z m260-250l0 500l375-250z" horiz-adv-x="1000" />
<glyph glyph-name="stop" unicode="&#xe898;" d="m0-25l0 750l750 0l0-750l-750 0z" horiz-adv-x="750" />
<glyph glyph-name="stop-circled" unicode="&#xe899;" d="m0 350q0 207 147 354t353 146t354-146t146-354t-146-354t-354-146t-353 146t-147 354z m250-250l500 0l0 500l-500 0l0-500z" horiz-adv-x="1000" />
<glyph glyph-name="pause" unicode="&#xe89a;" d="m0-25l0 750l313 0l0-750l-313 0z m438 0l0 750l312 0l0-750l-312 0z" horiz-adv-x="750" />
<glyph glyph-name="pause-circled" unicode="&#xe89b;" d="m0 350q0 207 147 354t353 146t354-146t146-354t-146-354t-354-146t-353 146t-147 354z m275-260l153 0l0 520l-153 0l0-520z m297 0l153 0l0 520l-153 0l0-520z" horiz-adv-x="1000" />
<glyph glyph-name="record" unicode="&#xe89c;" d="m0 350q0 207 147 354t353 146t354-146t146-354t-146-354t-354-146t-353 146t-147 354z m250 0q0-103 73-177t177-73t177 73t73 177t-73 177t-177 73t-177-73t-73-177z" horiz-adv-x="1000" />
<glyph glyph-name="eject" unicode="&#xe89d;" d="m0-96l0 258l1000 0l0-258l-1000 0z m0 354l500 539l500-539l-1000 0z" horiz-adv-x="1000" />
<glyph glyph-name="backward" unicode="&#xe89e;" d="m0 350l344 344l0-313l312 313l0-688l-312 313l0-313z" horiz-adv-x="656" />
<glyph glyph-name="backward-circled" unicode="&#xe89f;" d="m0 350q0 207 147 354t353 146t354-146t146-354t-146-354t-354-146t-353 146t-147 354z m188 0l250-187l0 375z m312 0l250-187l0 375z" horiz-adv-x="1000" />
<glyph glyph-name="fast-backward" unicode="&#xe8a0;" d="m0-25l0 750l125 0l0-344l313 313l0-313l312 313l0-688l-312 313l0-313l-313 313l0-344l-125 0z" horiz-adv-x="750" />
<glyph glyph-name="fast-forward" unicode="&#xe8a1;" d="m0 6l0 688l313-313l0 313l312-313l0 344l125 0l0-750l-125 0l0 344l-312-313l0 313z" horiz-adv-x="750" />
<glyph glyph-name="forward" unicode="&#xe8a2;" d="m0 6l0 688l313-313l0 313l343-344l-343-344l0 313z" horiz-adv-x="656" />
<glyph glyph-name="forward-circled" unicode="&#xe8a3;" d="m0 350q0 207 147 354t353 146t354-146t146-354t-146-354t-354-146t-353 146t-147 354z m250-187l250 187l-250 188l0-375z m313 0l249 187l-249 188l0-375z" horiz-adv-x="1000" />
<glyph glyph-name="step-backward" unicode="&#xe8a4;" d="m0-25l0 750l125 0l0-344l313 313l0-688l-313 313l0-344l-125 0z" horiz-adv-x="437" />
<glyph glyph-name="step-forward" unicode="&#xe8a5;" d="m0 6l0 688l313-313l0 344l125 0l0-750l-125 0l0 344z" horiz-adv-x="437" />
<glyph glyph-name="target" unicode="&#xe8a6;" d="m0 274l0 152l131 0q21 110 102 191t191 102l0 131l152 0l0-131q110-21 191-102t102-191l131 0l0-152l-131 0q-21-109-102-191t-191-102l0-131l-152 0l0 131q-110 21-191 102t-102 191l-131 0z m231 0q19-70 71-122t122-71l0 146l152 0l0-146q70 19 122 71t72 122l-147 0l0 152l147 0q-20 71-72 122t-122 72l0-147l-152 0l0 147q-70-20-122-72t-71-122l146 0l0-152l-146 0z" horiz-adv-x="1000" />
<glyph glyph-name="signal" unicode="&#xe8a7;" d="m0-150l0 250l199 0l0-250l-199 0z m268 0l0 500l199 0l0-500l-199 0z m265 0l0 750l199 0l0-750l-199 0z m268 0l0 1000l199 0l0-1000l-199 0z" horiz-adv-x="1000" />
<glyph glyph-name="desktop" unicode="&#xe8a8;" d="m0 104l0 660l1000 0l0-660l-363 0l0-96l88 0l0-72l-450 0l0 72l88 0l0 96l-363 0z m123 125l754 0l0 410l-754 0l0-410z" horiz-adv-x="1000" />
<glyph glyph-name="desktop-circled" unicode="&#xe8a9;" d="m0 350q0 207 147 354t353 146t354-146t146-354t-146-354t-354-146t-353 146t-147 354z m209-144l211 0l0-55l-51 0l0-43l262 0l0 43l-51 0l0 55l211 0l0 386l-582 0l0-386z m70 74l0 238l442 0l0-238l-442 0z" horiz-adv-x="1000" />
<glyph glyph-name="laptop" unicode="&#xe8aa;" d="m0 47l0 88l1000 0l0-88l-51-52l-898 0z m100 135l0 524l800 0l0-524l-800 0z m99 96l602 0l0 334l-602 0l0-334z m209-252l184 0l0 80l-184 0l0-80z" horiz-adv-x="1000" />
<glyph glyph-name="laptop-circled" unicode="&#xe8ab;" d="m0 350q0 207 147 354t353 146t354-146t146-354t-146-354t-354-146t-353 146t-147 354z m178-195l31-35l582 0l31 35l0 56l-644 0l0-56z m64 88l516 0l0 338l-516 0l0-338z m65 60l0 215l386 0l0-215l-386 0z m132-162l0 51l122 0l0-51l-122 0z" horiz-adv-x="1000" />
<glyph glyph-name="network" unicode="&#xe8ac;" d="m0 348l0 4q232 19 367 115q43-20 86 2q92-92 192-123q11-29 37-47q-32-76-86-135q-41 29-87 14t-64-59q-131 0-250 55t-193 152q-2 6-2 22z m6 70q19 127 100 226t197 141q8-84 37-154q-51-53-22-117q-130-80-312-96z m14-207q87-76 199-118t224-42q-138-70-271-63q-109 90-152 223z m252-285q113 15 212 72q47-25 94-4t59 71q156 33 263 121q-37-92-106-161t-154-105t-182-35t-186 41z m97 879q88 19 180 2q-29-84-92-162q-41 17-55 11q-33 80-33 149z m129-287q16 39 2 76q84 103 113 195q61-19 108-53q17-132 4-256q-61-9-82-64q-69 25-145 102z m164-379q53 62 84 144q47 6 72 41q77 6 112 12q0-6-1-15t-1-12q-96-125-266-170z m129 326q12 111 4 211q111-115 131-272q-39-9-90-11q-6 46-45 72z" horiz-adv-x="930" />
<glyph glyph-name="inbox" unicode="&#xe8ad;" d="m0-150l0 483l328 0q0-73 51-123t121-49t121 49t51 123l328 0l0-483l-1000 0z m279 768l119 0l0 232l204 0l0-232l119 0l-221-332z" horiz-adv-x="1000" />
<glyph glyph-name="inbox-circled" unicode="&#xe8ae;" d="m0 350q0 207 147 354t353 146t354-146t146-354t-146-354t-354-146t-353 146t-147 354z m199-281l602 0l0 289l-197 0q0-41-31-71t-73-31t-73 31t-30 71l-198 0l0-289z m168 461l133-199l133 199l-72 0l0 140l-122 0l0-140l-72 0z" horiz-adv-x="1000" />
<glyph glyph-name="inbox-alt" unicode="&#xe8af;" d="m0 6l0 313l273 375l454 0l273-375l0-313l-1000 0z m78 313l172 0l125-125l250 0l125 125l172 0l-233 312l-378 0z" horiz-adv-x="1000" />
<glyph glyph-name="globe" unicode="&#xe8b0;" d="m0 350q0 207 147 354t353 146t354-146t146-354t-146-354t-354-146t-353 146t-147 354z m118-39q5-55 27-107q29-73 84-127t125-84q1 17 5 67t8 77q-4 16-22 51t-21 57q0 19 1 29t1 16q-4 1-10 7l-7 8q-8 8-12 10q-12 4-34 12t-33 11t-29 12t-30 18t-26 22t-24 28q-8-52-3-107z m142 340q17 2 35 0q18-8 38-31t34-32q4-4 12-4q4-9 23-12t24-7q23-14 37-33q-24-34-37-39q0-2 2-2q4-8-4-12q-6-2-24-6t-23-11t-10-24q0-4-4-8q4-27 2-49t-13-23q-6 0-12 2q-8 2-19 8t-24 17q0-6 4-15t4-12l6 0q7 2 11-3t0-9l-2-6l-2-2l8-4q10-7 19-7t22 1q20 2 31 2t27-8t22-15t22-18t23-17q4-2 22-13t26-19t9-21q-2-70-26-96q-7-7-22-18t-23-21t-15-23q-6-12-6-27q-6-12-16-34t-15-29q99-19 194 12t161 105q51 55 76 121t28 137l-37-21q-24 2-24-8l16-6q4-2 4-4q4-10-4-21q-6-12-29-36q-2-25-4-33q-4-10-10-21l0-14q-2-8-9-22t-9-25q-4-27-23-51q-29-27-49-23q-8 2-14 10q-4 13-13 37t-12 29q-4 10-4 20t2 23t2 20q0 9-7 24t-7 21q-2 5 4 19l-9 3q-8 3-32 3l-12 0q-44 0-56 55q-6 33 14 64q1 4 1 9l0 7q10 2 18 19q8 0 36 4t42 5t35-5q8-6 16-10q14-9 23-13l32 21q-10 16-20 26q-27 31-57 0l-68 5q-16-9-39-11q-2 11-6 19q-6 12-7 19t3 11l8 7q8 6 11 17t5 24t4 20q5 14 17 31q6 14 23 22t35 13t39 8t38 4q-37 31-76 53q-12 0-32 5t-29 4q-21 2-49-13q-21-16-50-16q-37 0-75 13t-64 28q-64-21-117-64z" horiz-adv-x="1000" />
<glyph glyph-name="globe-alt" unicode="&#xe8b1;" d="m0 350q0 207 147 354t353 146t354-146t146-354t-146-354t-354-146t-353 146t-147 354z m125 57q22-28 47-43t65-30t58-21q4-6 15-15t14-10q0-6-2-16q-2-22 1-39t8-27t16-29t16-28q2-6 0-14q-2-15-8-64t-7-76q39-24 76-26q4 8 8 18q4 8 8 20t13 29q0 13 5 25t11 18q6 7 13 13q20 16 36 32t17 25q8 31 10 68q0 12-9 20t-20 15q-18 8-46 35t-42 32q-18 8-34 9t-31-1q-13-4-33-2q-4 6-8 8q-8 3-2 9q4 8-3 11t-14 1q-8 23-8 37q14-12 23-17t18-8t14-2q9 4 11 19t-2 43q4 4 4 8q4 18 11 23t7 6q4 0 4 2q4 2 15 4q6 2 10 3t10 3q8 4 4 12l-2 0q17 10 35 41q-12 19-35 31q-8 10-20 6q-5 0-14 6t-13 8t-12 3q-13 8-26 21t-21 26q-3 10-17 14q-10 2-20 2l-11 0q-55-43-93-104t-50-134z m256 297q25-14 60-26t69-12q23 0 51 16q27 20 76 10q8-2 13-2q-35 16-74 23t-80 8q-60 0-115-17z m164-383q4-26 19-39q12-12 26-14t25 0t28-2q7-4 9-4q-6-13-4-21q0-4 6-19t6-24q-4-49 0-61q6-12 14-33t14-33q3-8 13-10q20-4 47 23q20 24 23 51q2 10 8 22t10 25q2 6 0 14q14 21 14 39l0 14q2 3 9 10t12 11q6 23 2 31q0 2-4 4l-17 6q11 25 35 20l31 9l0 6q0 90-36 163t-99 126q-101-11-127-45q-11-19-15-33q-2-8-5-20t-4-17t-5-12t-12-17q-4-4-4-11t6-19q6-9 6-17q29 0 37 10l71-6q25 31 56 0q8-8 18-26l-29-19q-20 10-34 15t-28 8t-22 1t-31-4t-36-3l-4-7t-6-7t-7-3q-2-4-2-10l0-8q-22-27-14-64z" horiz-adv-x="1000" />
<glyph glyph-name="cloud" unicode="&#xe8b2;" d="m0 241q4 69 33 125t87 85t124 14q53 85 128 114t145 6t126-81t78-137q49 6 89-22t56-68t9-90t-47-82l-791 0q-41 67-37 136z" horiz-adv-x="877" />
<glyph glyph-name="cloud-circled" unicode="&#xe8b3;" d="m0 350q0 207 147 354t353 146t354-146t146-354t-146-354t-354-146t-353 146t-147 354z m159-34q-3-54 29-105l615 0q29 26 36 63t-7 69t-45 54t-68 18q-22 76-83 126t-132 49q-94-2-156-101q-51 13-96-9t-67-67t-26-97z" horiz-adv-x="1000" />
<glyph glyph-name="flight" unicode="&#xe8b4;" d="m0 180l80 170l-80 170l100 0l113-100l180 0l-125 401l99 0l225-401l258 0l37-2q39-2 76-19t37-49q0-20-17-34t-36-22t-45-10t-36-3t-16-1l-258 0l-225-401l-99 0l125 401l-180 0l-113-100l-100 0z" horiz-adv-x="1000" />
<glyph glyph-name="leaf" unicode="&#xe8b5;" d="m2 56q9 28 31 48t44 41t20 32q-14 30-14 39q-19 127 61 232t195 153q43 18 102 20t104-4t94 4t79 43q45 49 82 49q23 0 33-20q55-119 30-240t-96-221t-168-150q-182-90-352-32q-13 4-43 23t-47 18q-9-5-19-18t-22-32t-15-26q-14-23-37-27t-43 16q-28 25-19 52z m182 175q1-15 13-24t26-8t24 12q145 173 377 168q16-2 27 8t10 25q0 15-9 26t-26 13q-127 6-239-45t-194-147q-10-13-9-28z" horiz-adv-x="871" />
<glyph glyph-name="font" unicode="&#xe8b6;" d="m0-74l86 0l353 918l112 0l351-918l98 0l0-70l-359 0l0 70l109 0l-82 217l-416 0l-82-217l107 0l0-70l-277 0l0 70z m279 287l364 0l-182 471z" horiz-adv-x="1000" />
<glyph glyph-name="fontsize" unicode="&#xe8b7;" d="m0 19l209 685q4 12 16 12l138 0q12 0 16-12l207-681q2-6 2-8q0-16-16-16l-125 0q-11 0-15 12l-35 123l-206 0l-35-123q-4-12-15-12l-125 0q-20 0-16 20z m223 248l142 0l-72 252z m369-111q4 84 53 128q46 41 111 41q66 0 109-35l0 32q0 74-76 74q-59 0-107-51q-18-14-26 4l-41 68q-4 12 4 20q37 37 84 54q57 24 130 18t114-45q51-45 51-129l0-324q0-16-16-16l-99 0q-16 0-18 16l0 10q-47-37-109-37q-67 2-111 45q-51 48-53 127z m133-2q0-30 17-51q29-24 68-17t55 34l0 69q-13 25-37 31q-57 20-86-14q-17-23-17-52z" horiz-adv-x="998" />
<glyph glyph-name="bold" unicode="&#xe8b8;" d="m0-60l125 0l0 820l-125 0l0 80l582 0q180 0 270-60t89-182q0-88-62-139t-184-64q147-14 226-79t79-173q0-145-111-215q-110-68-344-68l-545 0l0 80z m379 0l94 0q125 0 185 49t61 154q0 105-62 157t-184 52l-94 0l0-412z m0 492l86 0q113 0 168 39q55 43 55 127q0 86-55 125q-53 37-168 37l-86 0l0-328z" horiz-adv-x="1000" />
<glyph glyph-name="italic" unicode="&#xe8b9;" d="m0-150l14 70l127 0l172 858l-127 0l13 72l391 0l-14-72l-127 0l-172-858l127 0l-13-70l-391 0z" horiz-adv-x="590" />
<glyph glyph-name="text-height" unicode="&#xe8ba;" d="m0 499l6 177l570 0l4-177l-60 0q0 91-20 107t-137 16l0-491q0-45 11-51t73-7l0-49l-314 0l0 49q62-2 73 6t11 52l0 491q-117 0-136-16t-18-107l-63 0z m652-475l118 0l0 652l-118 0l174 174l174-174l-115 0l0-652l115 0l-174-174z" horiz-adv-x="1000" />
<glyph glyph-name="text-width" unicode="&#xe8bb;" d="m0 24l174 174l0-117l652 0l0 117l174-174l-174-174l0 115l-652 0l0-115z m211 648l4 178l570 0l4-178l-60 0q0 92-20 107t-137 14l0-488q0-45 11-53t75-7l0-49l-316 0l0 49q64 0 75 6t11 54l0 488q-117 0-137-14t-19-107l-61 0z" horiz-adv-x="1000" />
<glyph glyph-name="align-left" unicode="&#xe8bc;" d="m0-89l0 156l1000 0l0-156l-1000 0z m0 240l0 156l609 0l0-156l-609 0z m0 242l0 156l789 0l0-156l-789 0z m0 240l0 157l516 0l0-157l-516 0z" horiz-adv-x="1000" />
<glyph glyph-name="align-center" unicode="&#xe8bd;" d="m0-89l0 156l1000 0l0-156l-1000 0z m106 482l0 156l789 0l0-156l-789 0z m89-242l0 156l610 0l0-156l-610 0z m47 482l0 157l516 0l0-157l-516 0z" horiz-adv-x="1000" />
<glyph glyph-name="align-right" unicode="&#xe8be;" d="m0-89l0 156l1000 0l0-156l-1000 0z m211 482l0 156l789 0l0-156l-789 0z m180-242l0 156l609 0l0-156l-609 0z m93 482l0 157l516 0l0-157l-516 0z" horiz-adv-x="1000" />
<glyph glyph-name="align-justify" unicode="&#xe8bf;" d="m0-89l0 156l1000 0l0-156l-1000 0z m0 240l0 156l1000 0l0-156l-1000 0z m0 242l0 156l1000 0l0-156l-1000 0z m0 240l0 157l1000 0l0-157l-1000 0z" horiz-adv-x="1000" />
<glyph glyph-name="list" unicode="&#xe8c0;" d="m0-13l0 180l180 0l0-180l-180 0z m0 273l0 180l180 0l0-180l-180 0z m0 274l0 180l180 0l0-180l-180 0z m266-547l0 180l734 0l0-180l-734 0z m0 273l0 180l734 0l0-180l-734 0z m0 274l0 180l734 0l0-180l-734 0z" horiz-adv-x="1000" />
<glyph glyph-name="indent-left" unicode="&#xe8c1;" d="m0-66l0 147l1000 0l0-147l-1000 0z m0 229l0 375l281-188z m0 457l0 146l1000 0l0-146l-1000 0z m422-457l0 146l578 0l0-146l-578 0z m0 228l0 147l578 0l0-147l-578 0z" horiz-adv-x="1000" />
<glyph glyph-name="indent-right" unicode="&#xe8c2;" d="m0-66l0 147l1000 0l0-147l-1000 0z m0 229l0 146l578 0l0-146l-578 0z m0 228l0 147l578 0l0-147l-578 0z m0 229l0 146l1000 0l0-146l-1000 0z m719-270l281 188l0-375z" horiz-adv-x="1000" />
<glyph glyph-name="briefcase" unicode="&#xe8c3;" d="m0-89l0 254l451 0l0-80l98 0l0 80l451 0l0-254l-1000 0z m0 332l0 406l266 0l0 141l468 0l0-141l266 0l0-406l-451 0l0 84l-98 0l0-84l-451 0z m338 406l324 0l0 68l-324 0l0-68z" horiz-adv-x="1000" />
<glyph glyph-name="off" unicode="&#xe8c4;" d="m0 350q0 207 147 354l101-102q-105-103-105-252t104-253t253-104t253 104t104 253t-105 252l102 102q146-147 146-354t-146-354t-354-146t-353 146t-147 354z m428-78l0 578l144 0l0-578l-144 0z" horiz-adv-x="1000" />
<glyph glyph-name="road" unicode="&#xe8c5;" d="m0-150l201 1000l250 0l-8-230l114 0l-8 230l250 0l201-1000l-418 0l-10 287l-144 0l-10-287l-418 0z m430 373l140 0l-11 340l-118 0z" horiz-adv-x="1000" />
<glyph glyph-name="qrcode" unicode="&#xe8c6;" d="m0-150l0 455l455 0l0-455l-455 0z m0 545l0 455l455 0l0-455l-455 0z m90-455l273 0l0 273l-273 0l0-273z m0 547l273 0l0 273l-273 0l0-273z m92-455l0 92l91 0l0-92l-91 0z m0 545l0 89l91 0l0-89l-91 0z m363-727l0 455l271 0l0-92l94 0l0 92l90 0l0-273l-273 0l0 90l-90 0l0-272l-92 0z m0 545l0 455l455 0l0-455l-455 0z m92 92l273 0l0 273l-273 0l0-273z m90-547l89 0l0-90l-89 0l0 90z m0 637l0 89l89 0l0-89l-89 0z m183-637l90 0l0-90l-90 0l0 90z" horiz-adv-x="1000" />
<glyph glyph-name="barcode" unicode="&#xe8c7;" d="m0-82l0 864l84 0l0-864l-84 0z m123 0l0 864l20 0l0-864l-20 0z m70 0l0 864l63 0l0-864l-63 0z m92 0l0 864l28 0l0-864l-28 0z m104 0l0 864l41 0l0-864l-41 0z m56 0l0 864l18 0l0-864l-18 0z m61 0l0 864l19 0l0-864l-19 0z m45 0l0 864l82 0l0-864l-82 0z m111 0l0 864l43 0l0-864l-43 0z m102 0l0 864l9 0l0-864l-9 0z m25 0l0 864l27 0l0-864l-27 0z m68 0l0 864l20 0l0-864l-20 0z m61 0l0 864l82 0l0-864l-82 0z" horiz-adv-x="1000" />
<glyph glyph-name="braille" unicode="&#xe8c8;" d="m0-26q0 52 36 88t87 36t88-36t37-88t-37-88t-88-36t-87 36t-36 88z m0 376q0 51 36 88t87 37t88-37t37-88t-37-88t-88-37t-87 37t-36 88z m0 376q0 52 36 88t87 36t88-36t37-88t-37-88t-88-36t-87 36t-36 88z m397-752q0 52 37 88t88 36t86-36t37-88t-37-88t-86-36t-88 36t-37 88z m0 376q0 51 37 88t88 37t86-37t37-88t-37-88t-86-37t-88 37t-37 88z m0 376q0 52 37 88t88 36t86-36t37-88t-37-88t-86-36t-88 36t-37 88z" horiz-adv-x="644" />
<glyph glyph-name="book" unicode="&#xe8c9;" d="m0 147l0 543q0 31 14 53q29 45 102 77t116 9l471-242l0-590l-86-47l0 590l-420 224q-29 10-65-9t-58-47l469-270l0-529l-86-47z" horiz-adv-x="703" />
<glyph glyph-name="adjust" unicode="&#xe8ca;" d="m0 350q0 207 147 354t353 146t354-146t146-354t-146-354t-354-146t-353 146t-147 354z m147 0q0-146 103-250t250-104l0 708q-146 0-250-104t-103-250z" horiz-adv-x="1000" />
<glyph glyph-name="tint" unicode="&#xe8cb;" d="m0 204q2 106 57 190q17 27 55 80t54 78q90 139 127 256q16 45 59 41q46 2 58-41q37-120 129-256q18-29 55-80t54-78q55-88 57-190q-4-148-103-250q-106-101-250-103q-149 4-248 103q-104 108-104 250z m154-78q2-37 28-62t60-26q37 2 63 28t25 60q0 27-14 47q-17 23-27 41q-25 41-33 63q-2 13-14 11q-11 2-15-11q-8-28-30-63q-6-10-15-22t-14-19q-14-20-14-47z" horiz-adv-x="705" />
<glyph glyph-name="check" unicode="&#xe8cc;" d="m0-150l0 1000l646 0l-164-164l-318 0l0-672l672 0l0 319l164 164l0-647l-1000 0z m234 623l133 131l129-129l361 363l133-132l-361-364l-133-133z" horiz-adv-x="1000" />
<glyph glyph-name="check-empty" unicode="&#xe8cd;" d="m0-150l0 1000l1000 0l0-1000l-1000 0z m164 164l672 0l0 672l-672 0l0-672z" horiz-adv-x="1000" />
<glyph glyph-name="asterisk" unicode="&#xe8ce;" d="m0 395l57 176l351-116l0 370l184 0l0-370l351 116l57-176l-352-113l217-299l-148-108l-217 299l-217-299l-148 108l217 299z" horiz-adv-x="1000" />
<glyph glyph-name="gift" unicode="&#xe8cf;" d="m0 290l0 250l357 0l-158 126l190 125l70-212l121 271l190-187l-194-123l326 0l0-250l-62 0l0-440l-777 0l0 440l-63 0z m63 62l326 0l0 125l-326 0l0-125z m62-439l264 0l0 396l-264 0l0-396z m154 750l139-112l-55 166z m215-122l201 127l-99 100z m20-628l263 0l0 396l-263 0l0-396z m0 439l326 0l0 125l-326 0l0-125z" horiz-adv-x="902" />
<glyph glyph-name="fire" unicode="&#xe8d0;" d="m7 238q10 41 50 131t44 146q39-72 45-145q148 184 154 428q10-6 25-17t58-45t74-74t61-96t34-118q15 36 19 78t-9 81q15-12 41-40t56-74t56-99t31-118t-9-127t-72-127t-152-120q64 128 25 278t-154 229q10-43-11-141t-65-150q7 63 4 102t-12 58l-10 18q-12-70-60-141q-26-37-39-68t-9-80t30-105q-135 76-181 154t-24 181z" horiz-adv-x="748" />
<glyph glyph-name="magnet" unicode="&#xe8d1;" d="m0 412q0 181 137 309t329 128t329-128t137-309q0-20-2-39l-10-192l-293 24l8 193q2 6 2 14q0 66-50 113t-120 47t-121-47t-51-114q0-5 2-13l10-194l-295-23l-10 191q-2 20-2 39z m23-346l293 25l18-187q2-14-8-24t-23-11l-225-18q-15-2-26 7t-11 22z m575-162l17 187l295-25l-17-186q-2-13-13-22t-25-7l-226 18q-14 1-23 11t-8 24z" horiz-adv-x="932" />
<glyph glyph-name="chart" unicode="&#xe8d2;" d="m0-29l0 758l1000 0l0-758l-1000 0z m123 123l754 0l0 512l-754 0l0-512z m27 162l125 104l36 29l31-33l43-47l105 166l47 72l39-78l61-125l127 223l86-49l-176-305l-45-80l-41 84l-63 131l-91-142l-34-53l-43 45l-54 56l-90-74z" horiz-adv-x="1000" />
<glyph glyph-name="chart-circled" unicode="&#xe8d3;" d="m0 350q0 207 147 354t353 146t354-146t146-354t-146-354t-354-146t-353 146t-147 354z m209-221l582 0l0 442l-582 0l0-442z m72 73l0 297l438 0l0-297l-438 0z m16 93l37-43l51 43l31-33l25-27l20 31l55 82l35-74l23-49l28 47l101 176l-49 27l-76-129l-33 72l-23 47l-28-43l-60-95l-26 27l-19 18l-20-16z" horiz-adv-x="1000" />
<glyph glyph-name="credit-card" unicode="&#xe8d4;" d="m0 18l0 664l1000 0l0-664l-1000 0z m63 63l874 0l0 296l-874 0l0-296z m0 439l874 0l0 100l-874 0l0-100z m60-361q0 13 5 21t15 8t14-8t5-21t-5-22t-14-8t-15 8t-5 22z m8 0q0-12 3-18t9-6t8 6t3 18t-3 17t-8 6t-9-6t-3-17z m43 0q0 13 5 21t14 8t15-8t5-21t-5-22t-15-8t-14 8t-5 22z m8 0q0-12 3-18t8-6t9 6t3 18t-3 17t-9 6t-8-6t-3-17z m41 0q0 13 5 21t14 8t15-8t5-21t-5-22t-15-8t-14 8t-5 22z m8 0q0-12 2-18t9-6t9 6t3 18t-3 17t-9 6t-9-6t-2-17z m42 0q0 13 5 21t15 8t15-8t5-21t-5-22t-15-8t-15 8t-5 22z m8 0q0-12 3-18t9-6t9 6t3 18t-3 17t-9 6t-9-6t-3-17z m39-10l0 6l22 0l0-6l-22 0z m32 10q0 13 4 21t15 8t15-8t5-21t-5-22t-15-8t-15 8t-4 22z m7 0q0-12 3-18t9-6t9 6t3 18t-3 17t-9 6t-9-6t-3-17z m41 0q0 13 5 21t15 8t15-8t4-21t-4-22t-15-8t-15 8t-5 22z m8 0q0-12 3-18t9-6t9 6t3 18t-3 17t-9 6t-9-6t-3-17z m41 0q0 13 6 21t15 8t14-8t6-21t-6-22t-14-8t-15 8t-6 22z m8 0q0-12 4-18t10-6t9 6t2 18t-2 17t-9 6t-10-6t-4-17z m43 0q0 13 5 21t15 8t14-8t5-21t-5-22t-14-8t-15 8t-5 22z m8 0q0-12 3-18t9-6t8 6t3 18t-3 17t-8 6t-9-6t-3-17z" horiz-adv-x="1000" />
<glyph glyph-name="megaphone" unicode="&#xe8d5;" d="m0 344l0 123q2 35 26 60t58 24l270 0q138 8 272 65t229 152q36-2 59-26t23-58l0-199q28-8 45-30t18-50q-2-30-19-51t-44-27l0-201q-1-36-26-59t-56-24q-207 184-449 211q-66-33-53-127t77-142q-28-47-96-52t-105 30q-16 45-25 76t-16 71t-7 78t10 72l-107 0q-35 2-60 27t-24 57z m438-10q240-44 419-183l0 508q-203-151-419-182l0-143z" horiz-adv-x="1000" />
<glyph glyph-name="clipboard" unicode="&#xe8d6;" d="m0-150l0 904l225 0l0-64l-161 0l0-774l579 0l0 774l-161 0l0 64l225 0l0-904l-707 0z m129 129l0 31l31 0l0-31l-31 0z m0 121l0 31l31 0l0-31l-31 0z m0 121l0 31l31 0l0-31l-31 0z m0 121l0 32l31 0l0-32l-31 0z m0 121l0 32l31 0l0-32l-31 0z m0 96l0 94l129 0l0 97q0 41 27 71t69 29t69-30t28-70q0-56-2-97l129 0l0-94l-449 0z m96-582l0 33l353 0l0-33l-353 0z m0 121l0 33l353 0l0-33l-353 0z m0 121l0 33l353 0l0-33l-353 0z m0 121l0 34l353 0l0-34l-353 0z m0 121l0 34l353 0l0-34l-353 0z m97 260q0-14 9-22t23-9t22 9t9 22t-9 24t-22 9t-23-9t-9-24z" horiz-adv-x="707" />
<glyph glyph-name="hdd" unicode="&#xe8d7;" d="m0 239l199 537l602 0l199-537l-80-315l-840 0z m78-51l55-213l734 0l55 213l-844 0z m654-106q0 16 12 28t28 12t29-12t11-28t-11-29t-29-11t-28 11t-12 29z" horiz-adv-x="1000" />
<glyph glyph-name="key" unicode="&#xe8d8;" d="m0 350q0 113 80 193t193 81q96 0 169-58t97-148l461 0l0-117l-64 0l0-218l-116 0l0 218l-54 0l0-150l-118 0l0 150l-105 0q-18-95-94-160t-176-64q-113 0-193 80t-80 193z m127 0q0-60 43-103t103-43t104 43t43 103t-43 104t-104 43t-103-43t-43-104z" horiz-adv-x="1000" />
<glyph glyph-name="certificate" unicode="&#xe8d9;" d="m0 219l94 139l-86 146l154 67l6 168l166-28l96 139l125-113l156 64l43-162l166-29l-51-160l123-116l-129-107l43-164l-168-20l-52-160l-153 75l-131-108l-88 145l-167-20l3 170z" horiz-adv-x="992" />
<glyph glyph-name="tasks" unicode="&#xe8da;" d="m0-41l0 196l1000 0l0-196l-1000 0z m0 293l0 196l1000 0l0-196l-1000 0z m0 293l0 196l1000 0l0-196l-1000 0z m406-244l543 0l0 100l-543 0l0-100z m221 293l322 0l0 100l-322 0l0-100z m119-586l203 0l0 100l-203 0l0-100z" horiz-adv-x="1000" />
<glyph glyph-name="filter" unicode="&#xe8db;" d="m0 850l1000 0l-346-346l0-402l-308-252l0 654z" horiz-adv-x="1000" />
<glyph glyph-name="gauge" unicode="&#xe8dc;" d="m0 188q0 207 147 354t353 146t354-146t146-354q0-92-31-176l-137 0q43 82 43 176q0 154-109 265t-266 110t-266-110t-109-265q0-94 43-176l-137 0q-31 84-31 176z m250 180q0 25 19 44t44 18t43-18t19-44t-19-44t-43-19t-44 19t-19 44z m188 60q0 26 18 44t44 19t44-19t19-44t-19-44t-44-18t-44 18t-18 44z m13-416l0 49l49 246l49-246l0-49l-98 0z m174 356q0 25 19 44t44 18t43-18t19-44t-19-44t-43-19t-44 19t-19 44z" horiz-adv-x="1000" />
<glyph glyph-name="smiley" unicode="&#xe8dd;" d="m0-150l0 1000l1000 0l0-1000l-1000 0z m152 471q0-145 102-246t246-102t246 102t102 246l-696 0z m67 230q0-45 31-76t76-31t77 31t33 76t-33 77t-77 33t-76-33t-31-77z m336 0q0-45 32-76t77-31t76 31t31 76t-31 77t-76 33t-77-33t-32-77z" horiz-adv-x="1000" />
<glyph glyph-name="smiley-circled" unicode="&#xe8de;" d="m0 350q0 207 147 354t353 146t354-146t146-354t-146-354t-354-146t-353 146t-147 354z m238-262l524 0l0 524l-524 0l0-524z m80 246l364 0q0-76-53-128t-129-53t-129 53t-53 128z m36 122q0 23 16 40t40 16t40-16t17-40t-17-40t-40-17t-40 17t-16 40z m175 0q0 23 17 40t40 16t40-16t17-40t-17-40t-40-17t-40 17t-17 40z" horiz-adv-x="1000" />
<glyph glyph-name="address-book" unicode="&#xe8df;" d="m0-150l0 1000l1000 0l0-178l-109 0l0-95l109 0l0-178l-109 0l0-98l109 0l0-178l-109 0l0-95l109 0l0-178l-1000 0z m193 285l504 0l0 155l-187 111q37 19 58 54t22 77q0 58-42 101t-103 43t-102-43t-42-101q0-43 22-77t58-54l-188-111l0-155z" horiz-adv-x="1000" />
<glyph glyph-name="address-book-alt" unicode="&#xe8e0;" d="m0 350q0 207 147 354t353 146t354-146t146-354t-146-354t-354-146t-353 146t-147 354z m219-281l562 0l0 99l-62 0l0 55l62 0l0 100l-62 0l0 54l62 0l0 100l-62 0l0 55l62 0l0 99l-562 0l0-562z m109 160l0 88l2 0l104 62q-45 22-45 73q0 33 23 56t58 24t57-24t24-56q0-51-45-73l103-62l2 0l0-88l-283 0z" horiz-adv-x="1000" />
<glyph glyph-name="asl" unicode="&#xe8e1;" d="m1 700q-4 37 15 53t45 5t35-38l53-184q-15-29-14-64q6-30 36-204q7-52 32-82t65-29q47 0 74 37q34-39 83-37t74 41q27-37 71-41t73 27q12 16 20 32t11 37t5 33t1 40l0 38q26-10 61 24q49 45 109 78t98 8q33-24 31-59t-35-55q-61-25-104-82t-67-112t-58-117t-78-93q-21-18-66-18l-350 0q-84 6-105 118z m181-234q-6 45 21 65t56 8t37-48l21-209q4-41-17-63t-46-15t-37 45z m155 70q2 41 32 56t62-1t36-49l8-248q0-59-28-76t-57 4t-30 62z m175 4q4 43 37 55t62-7t30-52l-6-254q-5-47-34-66t-54 1t-29 67z" horiz-adv-x="979" />
<glyph glyph-name="glasses" unicode="&#xe8e2;" d="m0 386q-2 13 8 25l360 186q29 11 41-16q11-33-14-45l-227-104l658 0l-228 104q-25 16-14 45q14 27 43 16l362-186q11-12 9-25l-27-256q-8-30-33-30l-313 0q-25 2-31 26l-49 223q-39 25-92 1l-50-224q-6-26-32-26l-312 0q-27 2-31 30z m67-30l19-189l260 0l43 189l-322 0z m543 0l41-189l259 0l20 189l-320 0z" horiz-adv-x="999" />
<glyph glyph-name="hearing-impaired" unicode="&#xe8e3;" d="m0-62q0 22 16 38l248 250q17 16 40 16t38-16q15-18 15-41t-15-39l-248-250q-41-35-78 0q-16 19-16 42z m125 477q4 131 90 219q94 90 219 92q129-4 216-92q90-94 90-219q0-50-11-83t-36-75q-9-23-41-60t-41-53q-6-18-6-39t0-48t2-42q-2-90-54-133q-53-29-114-29q-21 2-35 16t-14 33t12 35q10 10 21 14t26 4t24 3q25 8 27 16q6 20 6 59q2 9 0 59t4 58q10 41 29 68q6 6 16 18t15 17l32 47q5 8 14 25t13 22q12 31 12 68q-2 90-61 149q-64 60-146 60q-88-2-147-60q-60-65-62-149q0-21-14-36t-35-14q-22 2-36 16t-15 34z m154-7q2 66 45 109q47 45 110 47q64-4 107-47q45-47 47-109q-2-20-14-32t-29-11q-41 3-41 43q-2 29-23 49t-47 21q-30-2-50-23t-21-47q-2-20-13-32t-30-11q-41 3-41 43z m434 249q0 22 17 38l135 136q20 16 41 16t37-16q18-17 17-40t-17-38l-134-136q-41-38-79 0q-17 17-17 40z" horiz-adv-x="960" />
<glyph glyph-name="iphone-home" unicode="&#xe8e4;" d="m0 350q0 207 147 354t353 146t354-146t146-354t-146-354t-354-146t-353 146t-147 354z m285-174q0-15 12-27t29-14l348 0q15 0 27 12t14 29l0 348q0 16-12 27t-29 14l-348 0q-15 0-27-12t-14-29l0-348z m80 61l0 228q0 20 20 20l230 0q20 0 20-20l0-228q0-22-20-22l-230 0q-20 0-20 22z" horiz-adv-x="1000" />
<glyph glyph-name="person" unicode="&#xe8e5;" d="m0 238l0 275q0 71 47 96q17 8 41 8l207 0q23 0 43-8q59-29 59-96l0-275q-4-31-31-28t-28 28l0 262q-2 9-18 7t-15-7l0-600q-4-27-26-36t-42 4t-20 34l0 365q-4 18-22 15t-17-15l0-365q-2-29-25-38t-42 3t-21 33l0 600q-4 9-18 7t-15-7l0-262q-4-31-31-28t-26 28z m102 505q0 40 28 68t68 28t69-28t28-68t-28-68t-69-29t-68 29t-28 68z" horiz-adv-x="396" />
<glyph glyph-name="adult" unicode="&#xe8e6;" d="m0-132l0 289q0 103 60 177t157 75l330 0q101-2 158-76t57-176l0-289q0-18-18-18l-105 0q-16 0-16 18l0 252q-6 27-27 24t-22-24l0-252q-2-18-19-18l-352 0q-17 0-17 18l0 252q-4 27-26 24t-23-24l0-252q0-18-18-18l-101 0q-18 0-18 18z m186 783q0 82 59 140t140 59q86-4 142-60t59-139q-2-84-61-143t-140-58q-84 2-142 60t-57 141z" horiz-adv-x="762" />
<glyph glyph-name="child" unicode="&#xe8e7;" d="m0-134l0 345q-2 92 45 143t129 53l314 0q90 0 130-56t42-140l0-345q-2-16-13-16l-90 0q-16 2-16 16l0 308q-4 28-25 25t-24-25l0-308q0-16-13-16l-293 0q-14 0-14 16l0 308q-4 28-25 25t-24-25l0-308q0-16-14-16l-93 0q-14 2-16 16z m129 778q0 85 61 146t144 60t145-60t60-146t-60-145t-145-59t-144 59t-61 145z m88-34q0-47 34-81t82-34t82 34t34 81l-232 0z" horiz-adv-x="660" />
<glyph glyph-name="blind" unicode="&#xe8e8;" d="m5-94q-12 24 5 51l129 166l51 184l0 150l-27-37l-10-107q-4-26-25-34t-37 5t-14 37l13 115q0 9 6 17l104 141q19 31 56 35t65-21l113-143l111-23q22-4 30-30t-22-37l356-488q5-10-4-15t-16 3l-381 502l-103 20q-14 4-22 13l-43 55l0-158l112-127q5-6 7-18l55-244q4-27-17-44t-48-10t-34 37l-49 232l-92 104l-41-145q-6-14-8-18l-135-173q-21-20-47-19t-38 24z m179 835q0 40 28 69t69 28t68-28t28-69t-28-68t-68-28t-69 28t-28 68z" horiz-adv-x="911" />
<glyph glyph-name="guidedog" unicode="&#xe8e9;" d="m5 537q-14 29 12 42q13 6 26 2t18-13q20-31 58-51t69-20l315 0q-31-156-27-296q-18 0-50 5t-48 6q-27 4-20-23l45-178q-2-49-39-55q-15 0-31 11t-20 23l-56 222q-2 12-13 12t-15-12l-52-220q-10-36-43-36q-22 0-35 18t-10 37l64 262l4 160q-45 12-89 39t-63 65z m394 164q-11 21 8 33q22 12 33-6l112-176q11-23-6-35q-24-10-35 8z m90-690l39 160q2 8-2 16q2 185 26 293q78-102 211-129q-4-12-13-34t-13-32q-4-14 4-41q29-114 61-231q4-29-16-41t-43-6t-29 24l-45 172q-10 17-27 18t-24-18l-41-170q-10-26-33-28t-41 14t-14 33z m96 508l135 139l23 86l53-63q6-2 26-6t31-8t24-12t18-21t12-45t14-41q12-11 25-21t33-33q18-36-48-71q-28 2-52 6t-42 6q-24 4-41 8q-4-10-7-22t-9-23q-58 12-113 44t-82 77z" horiz-adv-x="983" />
<glyph glyph-name="accessibility" unicode="&#xe8ea;" d="m0 188q2 109 63 193q64 86 162 125q43 10 56-25q6-18-1-33t-24-20q-78-33-123-95q-45-69-47-145q4-107 78-180q82-74 186-74q86 2 152 47q70 49 98 121q5 16 9 31q12 41 51 32q41-12 33-49q-5-24-13-41q-39-104-127-164q-96-61-203-61q-145 4-246 100q-102 101-104 238z m264 562q2 43 30 72t69 28q43-2 72-30t28-70q-2-43-31-71t-69-28q-43 2-71 30t-28 69z m47-209l2 0q-8 36 21 65q23 21 59 21q27 0 46-15q10-8 17-16t11-19t5-18t4-23t4-22l166 0q32-2 42-31q3-24-10-39t-37-14l-143 0l22-105l181 0q47-2 65-39l162-284q15-33-10-58q-22-20-48-15t-38 30l-141 245q-48 1-144 0t-109 0q-59 3-69 54z" horiz-adv-x="934" />
<glyph glyph-name="universal-access" unicode="&#xe8eb;" d="m0 350q0 207 147 354t353 146t354-146t146-354t-146-354t-354-146t-353 146t-147 354z m66 0q0-180 127-307t307-127t307 127t127 307t-127 307t-307 127t-307-127t-127-307z m163 2q-20 27 2 47l167 146q12 8 22 11t25 3l110 0q15 0 25-3t22-11q9-7 71-62t97-84q21-22 1-47q-21-24-46-4q-20 18-63 54t-64 57q0-2-3 0t-7 4t-6 2q-6 0-6-13l0-58t4-67q2-22 2-26l49-271q4-41-33-49q-18-4-33 7t-16 26q-39 221-39 225q-6 23-10 23q-4-2-6-5t-2-7t-1-7l-1-4q0-2-10-59t-19-111l-10-55q-6-18-18-26t-31-7q-39 10-33 49l49 273q6 37 6 147q0 15-6 15t-16-8l-127-109q-27-20-46 4z m199 300q0 30 21 52t52 21t52-21t21-52t-21-52t-52-21t-52 21t-21 52z" horiz-adv-x="1000" />
<glyph glyph-name="male" unicode="&#xe8ec;" d="m0 209q0 149 105 254t254 106q106 0 196-57l199 199l-152 0l0 139l390 0l0-391l-140 0l0 151l-196-198q63-91 63-203q0-148-106-254t-255-105t-253 105t-105 254z m145 1q0-88 62-152t151-63t153 63t63 152t-63 152t-153 62t-151-62t-62-152z" horiz-adv-x="992" />
<glyph glyph-name="female" unicode="&#xe8ed;" d="m0 528q0 133 94 227t226 95t228-95t95-227q0-116-75-204t-185-111l0-103l137 0l0-123l-137 0l0-137l-123 0l0 137l-139 0l0 123l139 0l0 103q-112 22-186 111t-74 204z m127 0q0-80 57-137t136-57t137 57t57 137t-57 137t-137 56t-136-56t-57-137z" horiz-adv-x="643" />
<glyph glyph-name="behance" unicode="&#xe8ee;" d="m0-150l0 1000l1000 0l0-1000l-1000 0z m156 158l256 0q49 2 80 32q31 33 31 84q0 46-21 74q-18 23-51 31l0 4q29 10 45 29q20 28 20 71q-2 44-32 74q-31 29-74 29l-254 0l0-428z m121 100l0 74l94 0q14-2 20-10q9-9 9-23l0-8q0-14-9-23q-8-10-20-10l-94 0z m0 162l0 72l86 0q12 0 20-9t8-24l0-6q0-13-8-23t-20-10l-86 0z m250-98q0-43 12-76q12-31 34-53t54-32t72-11q78 2 117 36q41 33 41 91l-107 0q0-9-4-17q-10-29-51-29q-31 0-45 18t-13 54l220 0q0 62-11 97q-10 32-32 53t-52 31t-71 10q-37 0-67-11t-52-32t-33-52t-12-77z m75 194l189 0l0 70l-189 0l0-70z m37-155q2 26 15 40t41 15q24 0 37-15t14-40l-107 0z" horiz-adv-x="1000" />
<glyph glyph-name="blogger" unicode="&#xe8ef;" d="m0-150l0 1000l1000 0l0-1000l-1000 0z m188 377q0-195 218-191l235 0q160 23 173 189l0 88q-3 59-39 85t-84 28q10 35 2 94q-5 61-47 101t-111 45l-191 0q-65-9-108-47t-48-99l0-293z m96-29q-16 29 0 58t56 35l285 0q41-5 58-35t1-58t-55-35l-285 0q-43 5-60 35z m35 264q-14 27 1 53t55 32l156 0q41-4 56-30t-1-53t-55-34l-156 0q-41 6-56 32z" horiz-adv-x="1000" />
<glyph glyph-name="cc" unicode="&#xe8f0;" d="m0 30l0 640l500 98l500-98l0-640l-500-98z m174 316q0-70 27-117q43-72 133-72q39 0 68 13q73 32 78 125l-56 0q-16-86-88-86q-27 0-47 12q-55 31-55 125q0 43 10 76q26 69 90 69l18-2q58-10 68-76l57 0q-4 48-24 78l-6 6q-39 46-113 46q-57 0-98-33q-62-52-62-164z m346 0q0-70 27-117q43-72 133-72q37 0 68 13q70 32 78 125l-56 0q-16-86-90-86q-28 0-47 12q-55 31-55 125q0 43 12 76q23 69 90 69l17-2q59-10 67-76l58 0q-4 48-23 78l-6 6q-41 46-113 46q-57 0-98-33q-62-52-62-164z" horiz-adv-x="1000" />
<glyph glyph-name="css" unicode="&#xe8f1;" d="m0 57l0 774l1000 0l0-774l-500-187z m109 336q0-57 35-94t96-37q119 0 121 108l-76 0q0-45-47-47q-23 0-35 16t-12 42q0 49 12 67q20 25 55 11q25-9 25-44l78 0q0 52-33 80t-88 29q-56 0-94-35t-37-96z m284-41q0-88 125-90q109 0 111 88q-2 57-76 72q-2 0-17 3t-25 5t-21 8t-10 14q0 15 34 17q31 0 33-25l0-2l74 0l0 4q0 39-33 58t-78 20q-110 0-113-80q0-59 74-76q4-2 18-5t26-5t20-8t10-14q0-15-35-15q-41 0-41 31l-76 0z m265 0q0-88 125-90q110 0 112 88q0 18-8 29q-16 30-69 43q-2 0-17 3t-26 5t-19 8t-12 14q2 15 35 17q33 0 32-27l76 0q0 41-33 61t-79 21q-109 0-113-80q0-59 74-76q4-2 19-5l24-5t21-8t11-14q0-19-53-15q-24 6-24 31l-76 0z" horiz-adv-x="1000" />
<glyph glyph-name="delicious" unicode="&#xe8f2;" d="m0 350l0 500l500 0l0-500l500 0l0-500l-500 0l0 500l-500 0z" horiz-adv-x="1000" />
<glyph glyph-name="deviantart" unicode="&#xe8f3;" d="m0 143q2 49 19 94t52 92t112 81t178 47l2-43q-93-13-138-64t-65-133l207 0l-6 340l114 0l0-84q248 4 386-79t135-251l-471 0l2 230q63 4 106-7l0-145l211-2q-12 49-34 87t-51 60t-64 36t-72 18t-75 7t-73-1l0-283l-475 0z" horiz-adv-x="996" />
<glyph glyph-name="digg" unicode="&#xe8f4;" d="m0 346l0 250l63 0l0 61l64 0l0 64l184 0l0-64l-184 0l0-61l-64 0l0-250l310 0l0 250l-62 0l0 61l62 0l0-61l127 0l0 188l373 0l0-188l127 0l0-314l-64 0l0-366l-498 0l0 366l-188 0l0-121l61 0l0-63l-184 0l0 63l59 0l0 121l-123 0l0 64l-63 0z m63-430l0 182l64 0l0-119l184 0l0 119l62 0l0-182l-310 0z m375 430l62 0l0-367l188 0l0 182l62 0l0-182l121 0l0 367l65 0l0 191l-63 0l0-125l-373 0l0 125l-62 0l0-191z m126 129l245 0l0 246l-245 0l0-246z" horiz-adv-x="1000" />
<glyph glyph-name="dribbble" unicode="&#xe8f5;" d="m0 350q0 207 147 354t353 146t354-146t146-354t-146-354t-354-146t-353 146t-147 354z m72 0q0-164 110-287q52 100 145 166t220 123l-18 35l-17 35q-207-58-440-60l0-12z m10 86q195 2 395 53q-38 66-159 248q-91-43-154-122t-82-179z m156-424q116-90 262-90q88 0 168 33q-33 174-92 325q-219-72-338-268z m160 754q90-119 163-252q150 61 222 156q-121 108-283 108q-51 0-102-12z m194-314q4-10 13-28t14-31t12-25q146 15 297-16q-2 152-96 268q-88-108-240-168z m62-153q39-99 84-304q155 105 184 287q-92 25-184 25q-45-2-84-8z" horiz-adv-x="1000" />
<glyph glyph-name="facebook" unicode="&#xe8f6;" d="m0-150l0 1000l1000 0l0-1000l-1000 0z m471 469l92 0l0-352l132 0l0 352l129 0l6 127l-135 0l0 94q0 31 12 43t41 13l80 0l2 117q-59 6-88 6l-23 0q-31 0-57-10q-99-39-99-154l0-109l-92 0l0-127z" horiz-adv-x="1000" />
<glyph glyph-name="flickr" unicode="&#xe8f7;" d="m0-150l0 1000l1000 0l0-1000l-1000 0z m107 500q0-78 55-134t133-55t134 55t55 134t-55 133t-134 55t-133-55t-55-133z m409 0q0-78 55-134t134-55t133 55t55 134t-55 133t-133 55t-134-55t-55-133z" horiz-adv-x="1000" />
<glyph glyph-name="foursquare" unicode="&#xe8f8;" d="m0-150l0 1000l842 0l-229-312l-68 66q-35 31-66 0l-18-16q-4 6-9 13t-11 13q-64 70-152 72q-76-2-131-49q-62-58-70-138q-4-86 47-147q60-64 138-70l206-203q35-32 66 0l230 230q32 33 0 65l225 189l0-713l-1000 0z m127 633q0 66 47 114t114 48t114-48t47-114q0-31-11-61l0-4q25-35 41-54q15-22 17-24q4-6 12-6t12 8l371 508l109 0l0-234l-482-408q-4-2-10-2l-2 0q-4 0-8 2l-152 125l-2 0q-28-10-57-10q-66 0-113 47t-47 113z" horiz-adv-x="1000" />
<glyph glyph-name="friendfeed" unicode="&#xe8f9;" d="m0 467q2 50 15 78t27 34t40 9q18 230 276 254q95 7 205-32q66 36 148 36q33 0 125-14q61-16 86-41t24-68l3-90q-3-30-11-48t-23-28t-21-11t-27-7q2-2 9-5t10-6t7-13t6-25l0-111q-10-28-28-43t-31-20t-37-8l-43 4l-4-369q0-13-3-23t-6-18t-9-13t-11-9t-14-7t-13-5t-14-4t-14-3l-166 0q-74 2-84 96q-29-111-107-102l-143 2q-19 2-35 6t-24 12t-16 13t-10 16t-4 17t-3 18t-2 18l-2 355q-25 8-40 19t-26 45t-10 91z m98 43l2-114l74 0l-6-449l153 0l0 449l199 4l0-453l152-4l-2 457l137 0l0 102l-137 0q2 21 0 43t1 42t10 35t25 22t48 4q69-9 98-33l2 113q-82 36-190 22q-41-6-69-22t-42-31t-22-46t-10-48t-1-55l0-50l-192 2l0 76q2 18 5 28t11 24t25 17t45 5q18 2 88-23l-2 107q-78 26-119 26q-6 0-22-2t-29 0q-23-4-43-10t-33-13t-25-20t-20-22t-13-26t-9-26t-6-28t-3-26t-1-28l-1-22l2-31z" horiz-adv-x="949" />
<glyph glyph-name="friendfeed-rect" unicode="&#xe8fa;" d="m0-150l0 1000l1000 0l0-1000l-1000 0z m150 582q-2-41 7-66t20-33t28-14l2-262q0-2 2-15t3-17t6-13t11-14t18-8t30-7l106-2q56-8 78 76q8-70 62-72l123 0q2 2 10 4t11 3t10 3t10 4t7 7t7 10t4 13t4 16l2 274l31-2q28 4 43 13t29 38l0 82q-2 11-4 18t-6 9t-7 5t-6 5q18 4 25 7t19 18t15 43l-2 67q2 58-80 82q-69 9-94 9q-61 0-110-27q-80 29-150 23q-191-17-205-187q-27-2-43-20t-16-70z m71 33l60-4l-2 24l2 17l0 19t2 19t4 22t7 19t10 19t13 16t20 14t25 10t33 7q7 0 19 1t16 1q31 0 90-18l2-80q-53 20-67 18q-25 0-40-9t-18-19t-6-27l0-57l142-1l0 38t1 41t7 35t17 34t31 22t52 15q78 12 140-16l-2-84q-23 20-72 26q-23 2-37-3t-18-16t-6-26t-2-31t1-32l101 0l0-74l-101 0l0-338l-112 2l0 336l-146-4l0-332l-114 0l4 332l-54 0z" horiz-adv-x="1000" />
<glyph glyph-name="github" unicode="&#xe8fb;" d="m0 350q0 207 147 354t353 146t354-146t146-354t-146-354t-354-146t-353 146t-147 354z m55 0q0-183 131-314t314-131t314 131t131 314t-131 315t-314 130t-314-130t-131-315z m140-107q-4 4 0 7q8 8 20 6t14-4q13-5 30-26t26-28q47-39 96-6q4 14 13 23t16 14t28 12q-65 6-105 22t-63 42q-32 35-39 92t9 103q12 30 33 53q-15 49 6 112q63-4 114-43q97 25 203 2q13 9 42 24t71 17q8-22 11-51t-3-55q45-47 47-125q0-62-22-103t-76-69q-37-17-98-21q28-14 40-29t17-45l0-62t2-60q6-9 14-16t13-10t4-9t-15-6q-34 0-53 24q-6 10-6 23l0 94q0 16-8 22t-15 9l0-123q0-33 7-43t10-19q2-2-3-3t-16 3q-26 5-36 26t-9 44l0 121l-26 0l0-121q0-23-9-45q-14-27-51-29q-6 2-6 4q2 2 12 19q2 4 4 16t3 27l0 123q-7-2-14-9t-7-22l0-94q0-13-6-23q-17-24-53-24q-13 0-15 6q-2 4 1 7t8 7t8 6q8 6 12 15q6 8 3 41t-1 43q-51-17-104 18q-15 16-31 45q-11 21-47 51z" horiz-adv-x="1000" />
<glyph glyph-name="github-text" unicode="&#xe8fc;" d="m0-4q0 92 102 128l0 1q-38 22-38 71q0 60 36 76l0 2q-36 12-63 55q-29 45-29 97q0 80 55 133q54 49 128 49q53 0 100-27q53 0 121 27l0-113q-15-6-43-12q8-26 8-47q0-70-42-122t-108-62q-45-7-45-47q0-15 15-29q18-21 55-25q156-26 156-131q0-170-203-170q-84 0-137 29q-68 37-68 117z m115 6q0-56 96-56q84 0 84 60q0 55-92 55q-88 0-88-59z m12 424q0-76 68-76q67 0 67 76q0 33-16 55q-17 25-51 25q-68 0-68-80z m324 343q0 34 23 58t53 23t54-23t23-58t-23-58t-54-23t-53 23t-23 58z m14-653q4 21 4 74l0 342q0 50-4 70l125 0q-2-21-2-68l0-336q0-57 2-82l-125 0z m178 381l0 105l52 0l0 43q0 31-4 49l127 0q-2-22-2-47l0-45l94 0l0-105q-4 0-18 1t-29 1l-47 0l0-204q0-74 47-74q35 0 63 20l0-112q-41-21-98-21q-80 0-111 57q-22 43-22 134l0 200l-15 0q-16 0-37-2z" horiz-adv-x="926" />
<glyph glyph-name="googleplus" unicode="&#xe8fd;" d="m0-150l0 125q51 59 143 76q82 12 105 12q18 0 35-2q14-12 63-45t72-55q55-47 55-95q0-10-2-16l-471 0z m0 207l0 254q90-66 203-51q-27-68 2-115q14-21 29-43l-50 0q-131-4-184-45z m0 617l0 176l1000 0l0-271l-184 0l0 185l-80 0l0-185l-185 0l0-77l185 0l0-187l80 0l0 187l184 0l0-652l-443 0q19 72-6 131q-26 57-84 107q-28 24-102 82q-39 28-39 63q2 31 41 72q57 43 82 82q35 53 35 125q0 67-31 119q-19 32-56 67l87 0l82 66l-306 0q-74-2-145-24t-115-66z m59-60q13 58 70 86q25 11 55 13q45 0 80-27q68-57 91-154q20-78 2-129q-23-67-74-80q-78-22-133 15q-64 51-86 141q-15 68-5 135z" horiz-adv-x="1000" />
<glyph glyph-name="instagram" unicode="&#xe8fe;" d="m0-150l0 674l270 0q-26-51-26-110q0-103 73-175t176-73t176 73t73 175q0 59-25 110l283 0l0-674l-1000 0z m0 715l0 285l1000 0l0-285l-311 0q-74 96-196 96t-196-96l-297 0z m49 45l35 0l0 191q-16-6-25-20t-10-33l0-138z m60 0l36 0l0 197l-36 0l0-197z m59 0l35 0l0 197l-35 0l0-197z m61 0l33 0l0 197l-33 0l0-197z m44-197q0 91 65 156t155 64t155-64t65-156t-65-154t-155-63t-155 63t-65 154z m45 1q0-72 51-123t123-50t124 50t52 123t-52 124t-124 50t-123-50t-51-123z m422 254q0-23 18-41t43-17l94 0q23 0 41 17t17 41l0 80q0 24-17 42t-41 17l-94 0q-26 0-43-17t-18-42l0-80z" horiz-adv-x="1000" />
<glyph glyph-name="linkedin" unicode="&#xe8ff;" d="m0-150l0 1000l1000 0l0-1000l-1000 0z m164 729q2-34 25-54t53-23l2 0q35 2 59 24t23 53q-2 33-25 53t-55 21q-35 0-58-22t-24-52z m8-569l144 0l0 434l-144 0l0-434z m225 0l144 0l0 242q0 24 4 36q27 52 74 52q72-2 72-97l0-233l145 0l0 248q-2 98-47 149q-47 47-119 49q-53-2-86-26q-21-15-43-47l0 61l-144 0q1-18 1-70q0-90-1-364z" horiz-adv-x="1000" />
<glyph glyph-name="path" unicode="&#xe900;" d="m0 465q4 172 131 278q135 105 334 107q209-4 336-105q62-53 95-127t34-153q-4-164-125-263q-127-100-330-102l0-60q-2-57-34-104t-80-70q-33-16-72-16q-47 0-94 24l0 173q41-29 77-19q33 14 33 49l0 480l170 0l0-299q58 0 111 12q80 20 125 59q59 56 59 136q0 116-96 176q-88 51-209 51q-127-4-211-55q-45-29-69-75t-25-97q8-105 47-142l-107-115q-47 46-75 121q-23 78-25 136z" horiz-adv-x="930" />
<glyph glyph-name="picasa" unicode="&#xe901;" d="m0 350q2 141 76 259t196 180l189-170l-443-398q-18 66-18 129z m35-184l207 186l0-426q-144 92-207 240z m260-267l0 236l654 0q-58-117-167-191t-237-86q-135-10-250 41z m29 914q94 31 176 31q107 0 205-45l0-330z m436-625l0 584q111-71 176-183t64-239q0-86-29-162l-211 0z" horiz-adv-x="1000" />
<glyph glyph-name="pinterest" unicode="&#xe902;" d="m0 350q4 213 150 356t350 144q219-4 358-149t142-351q-4-211-150-354t-350-146q-70 0-141 21q14 22 28 49q15 34 39 125q6 26 17 69q14-24 47-43q88-41 186 8q101 58 140 181q36 129-8 239t-158 160q-142 41-277-9t-187-171q-14-45-17-89t3-86t29-75t63-51q9-4 15 0q8 4 16 31t6 38q-2 3-8 13q-41 67-27 140t60 124q72 64 169 70t165-53q37-42 48-103t0-116t-38-105q-49-76-115-78q-39 2-64 30t-14 66q3 21 23 84t22 94q-6 74-69 76q-49-6-72-44t-26-87q6-57 18-78q-21-88-33-141q-4-14-22-84t-19-107l0-55q-139 65-219 187t-80 270z" horiz-adv-x="1000" />
<glyph glyph-name="reddit" unicode="&#xe903;" d="m0 362q0 23 9 44t24 37t36 25t46 9q43 0 74-29q59 37 135 59t162 25l80 228l196-47q9 26 33 42t53 17q39 0 67-27t28-67t-28-66t-66-27t-67 27t-28 66l-164 39l-67-185q84-4 157-27t129-57q33 29 76 29q23 0 45-9t37-25t24-37t9-44q0-31-15-57t-40-41q4-17 4-35q0-60-35-116t-97-97t-143-64t-176-24q-92 0-174 24t-143 64t-97 97t-35 116q0 10 2 20q0 9 2 17q-24 16-38 40t-15 56z m86-133q0-55 32-102t88-84t132-57t161-21t160 21t132 57t89 84t32 102t-32 104t-89 85t-132 56t-160 21t-161-21t-132-56t-88-85t-32-104z m199 54q0 28 22 50t50 21t50-21t21-50t-21-49t-50-21t-50 21t-22 49z m53-165q12 10 33-8q6-6 13-10t14-7t13-5t14-3t13-3t14-3t14-2t15-1t17-1q76 4 133 35q21 20 35 8q10-18-12-35q-58-45-156-45q-105 2-152 45q-26 19-8 35z m242 166q0 29 21 50t50 20t51-20t21-50t-21-50t-51-21t-50 21t-21 50z" horiz-adv-x="1000" />
<glyph glyph-name="skype" unicode="&#xe904;" d="m2 609q12 89 75 153q68 65 160 74t170-37q111 18 219-17t185-112q133-138 135-324q0-51-10-100q27-56 27-119q-4-111-78-187q-84-78-189-78q-69 0-125 31q-139-23-264 29q-172 76-246 244q-53 141-25 272q-45 82-34 171z m211-394q4-49 35-89t71-61q166-69 308-10q57 24 91 70t34 104q2 105-105 154q-47 20-90 31q-15 4-56 13t-63 15q-25 8-49 24t-23 38q4 36 37 49t72 16q74 2 117-71q16-25 30-37t37-11q27 2 47 20t19 44q-4 53-42 88t-93 53q-134 33-242-8q-55-20-87-62t-34-92q2-45 23-80t58-54t70-31t78-21q54-12 86-21q66-24 66-71q0-35-35-58q-92-45-158-12q-41 19-67 76q-23 53-66 55q-28-2-47-20t-22-41z" horiz-adv-x="963" />
<glyph glyph-name="slideshare" unicode="&#xe905;" d="m2 374q16 11 43-6l0 482l893 0l0-482q16 11 33 11t16-13q-6-18-21-37t-29-34t-43-30t-42-24t-46-24t-38-17q25-82 18-162q-10-77-56-129t-120-55q-57 0-90 47q-10 15-10 37l0 197q-6 0-19 5t-16 5l0-211q0-35-31-60t-69-24q-72 0-119 55t-56 131q-8 82 17 160q-119 53-205 138q-17 32-10 40z m94-40q8-3 25-12t26-13l699 8q29 14 39 19l0 461l-789 0l0-463z m143 100q0 49 35 84t84 35t83-35t34-84t-34-83t-83-34t-84 34t-35 83z m279 0q0 49 35 84t84 35t83-35t34-84t-34-83t-83-34t-84 34t-35 83z" horiz-adv-x="987" />
<glyph glyph-name="stackoverflow" unicode="&#xe906;" d="m0-150l0 395l64 0l0-329l493 0l0 329l66 0l0-395l-623 0z m113 133l0 80l395 0l0-80l-395 0z m2 146l6 80l393-27l-6-80z m16 176l19 78l383-93l-19-81z m62 205l41 71l340-200l-41-70z m182 213l66 45l221-326l-68-45z m250 117l82 10l47-391l-80-9z" horiz-adv-x="754" />
<glyph glyph-name="stumbleupon" unicode="&#xe907;" d="m0 349q4 203 148 344t338 143q149-2 274-84l0-467q-2-26-19-41t-40-16q-25 2-42 18t-18 39l0 140q-2 122-78 149q-24 10-51 10l-239 0q-68-2-111-40q-47-43-47-103q0-45 20-74q31-41 90-53q9-2 37-6t41-8q25-9 25-35q-2-25-29-33q-20-4-72-4l-211 0q-16 65-16 121z m53-220l213 0q70 2 120 41t50 101q0 78-55 111q-26 16-102 30q-2 0-7 1t-8 2t-8 2t-9 2t-7 3t-6 4t-4 5t-4 6t-1 8q2 43 70 43l146 0q41-2 61-10q29-14 29-41l0-146q4-78 53-121q49-39 117-41q72 2 117 41q51 46 51 121l0 357q80-107 98-238t-33-248q-61-135-183-216t-265-81q-138 2-255 73t-178 191z" horiz-adv-x="971" />
<glyph glyph-name="twitter" unicode="&#xe908;" d="m0 26q162-19 305 88q-67-2-117 39t-77 105q18-3 43-1q34 1 49 5q-99 34-139 108q-23 51-23 103q57-29 92-27q-80 68-90 146q-6 63 25 135q114-125 239-180q93-39 185-39q-12 94 26 159q45 70 128 93q55 14 106-3t86-55q60 6 133 49q-30-86-92-118q62 10 121 36q-10-20-37-53t-68-57q1-10 1-17q4-110-42-233q-81-201-243-302q-160-90-382-69q-141 16-229 88z" horiz-adv-x="1000" />
<glyph glyph-name="tumblr" unicode="&#xe909;" d="m0-150l0 1000l1000 0l0-1000l-1000 0z m291 559l76 0l0-276q2-70 57-101q41-22 103-22q84 0 102 2q45 0 80 20l0 119q-21-14-47-24q-43-15-80-5q-31 7-47 19q-8 8-8 12l0 256l162 0l0 113l-162 0l0 168l-93 0q-4-70-41-119t-102-49l0-113z" horiz-adv-x="1000" />
<glyph glyph-name="vimeo" unicode="&#xe90a;" d="m0-150l0 1000l1000 0l0-1000l-1000 0z m133 600q2-4 8-12t7-10q12-12 38-4q25 10 41 9t29-26q27-74 74-252q31-102 76-121q26-6 52 0t46 17q119 76 213 239q2 3 26 50t33 69t23 60t12 68t-18 47q-53 41-108 27t-101-58t-62-94q48 0 58-4q29-15 25-64q-11-51-37-100t-58-54q-14 0-30 17q-19 24-27 50t-13 71t-6 55q0 2-5 31t-8 42t-11 35t-19 36t-28 18q-66 10-156-74q-37-33-74-65l0-3z" horiz-adv-x="1000" />
<glyph glyph-name="vkontakte" unicode="&#xe90b;" d="m0-150l0 1000l1000 0l0-1000l-1000 0z m98 701q2-27 19-66q47-100 143-236q35-40 54-57t49-39t70-28t89-5q15 2 22 3t17 8t11 24l4 51q6 21 27 19t28-16q14-23 53-58t66-33l129 6q17 0 22 16t-8 38q-30 43-104 112q-35 33 14 87q35 39 73 98t24 76q-7 8-11 9t-26 1l-121 0q-19 0-24-3t-13-20l-3-6t-12-25t-13-30t-14-27t-17-30t-17-23t-21-23t-20-14q-10 4-16 19t-6 38t1 43t3 43t2 29q0 47-58 47q-2 0-28 2t-43 1q-70 0-82-31q51-15 49-76q0-96-4-96q-9-39-41-9q-47 60-95 170q-12 23-32 21q-7 0-49 1t-62-1t-29-10z" horiz-adv-x="1000" />
<glyph glyph-name="w3c" unicode="&#xe90c;" d="m0 84l0 766l1000 0l0-766l-500-234z m84 461l63-275q3-14 17-14l47 0q14 0 18 14l23 113l21-113q4-14 18-14l49 0q14 0 17 14l61 275q2 10-3 16t-13 6l-50 0q-14 0-16-14l-23-121l-26 121q-4 14-17 14l-38 0q-13 0-15-14l-26-121l-25 121q-2 14-16 14l-50 0q-20 0-16-22z m344-242q37-51 103-53q45 2 76 30t32 68q-2 43-34 68q30 28 30 63q-2 45-32 68t-72 24q-64 0-99-51q-8-12 2-24l27-25q14-12 25 2q18 23 41 23q20 0 24-9q6-12 0-26q-8-9-45-9q-20 0-20-16l0-41q2-22 20-18q45 0 49-9t4-16q0-25-28-25q-29 0-47 25q-11 16-25 2l-29-29q-10-10-2-22z m232 108q0-73 36-117t95-44q70 0 104 75q3 19-10 23l-37 18q-6 2-14-1t-10-9q-12-29-33-29t-35 23t-14 62t14 61t35 23q21-1 33-27q8-14 24-10l37 18q17 10 10 25q-34 71-104 71q-59 0-95-45t-36-117z" horiz-adv-x="1000" />
<glyph glyph-name="wordpress" unicode="&#xe90d;" d="m0 350q4 209 151 354t349 146q207-4 353-151t147-349q-4-207-151-353t-349-147q-209 4-353 151t-147 349z m35 0q2-193 140-328t325-137q193 4 328 141t137 324q-4 193-141 328t-324 137q-193-4-329-141t-136-324z m41-30q-8 108 33 200l205-553q-109 55-173 155q-57 89-65 198z m69 264q62 90 157 140t198 52q168-4 287-111q-47 1-70-40q-4-25-6-39t7-35t14-33t18-31l18-30q33-62 7-144l-62-219l-154 459q43 4 46 4q12 4 15 14t-7 15q-6 6-11 6l-94-8l-70 0q-4 0-27 4t-37 2t-17-13q-3-16 14-20q33-4 47-6l68-179l-93-278l-157 459q43 4 49 4q18 2 16 20q-4 15-20 15q-70-10-136-8z m234-642l129 367l133-359q-131-45-262-8z m334 39q6 19 21 62l120 346q15 49 23 111q2 28-2 49q76-162 33-312q-51-172-195-256z" horiz-adv-x="1000" />
<glyph glyph-name="right" unicode="&#xe887;" d="m0 170l0 360l414 0l0 211l586-391l-586-391l0 211l-414 0z" horiz-adv-x="1000" />
</font>
</defs>
</svg>
